<?xml version="1.0" encoding="utf-8"?>
<!-- Generator: Adobe Illustrator 25.2.1, SVG Export Plug-In . SVG Version: 6.00 Build 0)  -->
<svg version="1.1" xmlns="http://www.w3.org/2000/svg" xmlns:xlink="http://www.w3.org/1999/xlink" x="0px" y="0px"
	 viewBox="0 0 327.18 70.43" style="enable-background:new 0 0 327.18 70.43;" xml:space="preserve">
<style type="text/css">
	.st0{display:none;}
	.st1{display:inline;}
	.st2{fill:#007de9;}
	.st3{fill:#FFFFFF;}
</style>
<g id="레이어_1" class="st0">
	<g class="st1">
		<g>
			<g>
				<path d="M211.23,67.75h-0.91v-0.97h-0.02c-0.42,0.73-1.07,1.1-1.96,1.1c-0.72,0-1.29-0.25-1.71-0.76
					c-0.43-0.51-0.64-1.2-0.64-2.08c0-0.94,0.24-1.7,0.71-2.26c0.47-0.57,1.11-0.85,1.9-0.85c0.78,0,1.35,0.31,1.71,0.92h0.02v-3.52
					h0.91V67.75z M210.32,65.18v-0.84c0-0.46-0.15-0.85-0.46-1.17c-0.3-0.32-0.69-0.48-1.16-0.48c-0.56,0-0.99,0.2-1.31,0.61
					c-0.32,0.41-0.48,0.97-0.48,1.69c0,0.66,0.15,1.17,0.46,1.55c0.31,0.38,0.72,0.57,1.23,0.57c0.51,0,0.92-0.18,1.24-0.55
					C210.16,66.2,210.32,65.74,210.32,65.18z"/>
				<path d="M219.38,65.13h-4.02c0.01,0.63,0.19,1.12,0.51,1.47c0.33,0.34,0.77,0.52,1.35,0.52c0.64,0,1.23-0.21,1.77-0.63v0.86
					c-0.5,0.36-1.16,0.54-1.98,0.54c-0.8,0-1.44-0.26-1.9-0.78s-0.69-1.24-0.69-2.18c0-0.89,0.25-1.61,0.75-2.16
					s1.13-0.84,1.87-0.84s1.32,0.24,1.73,0.72c0.41,0.48,0.61,1.15,0.61,2.01V65.13z M218.45,64.36c0-0.53-0.13-0.94-0.38-1.23
					c-0.25-0.29-0.6-0.44-1.04-0.44c-0.43,0-0.79,0.15-1.1,0.46c-0.3,0.31-0.49,0.71-0.56,1.21H218.45z"/>
				<path d="M222.15,67.54v-0.98c0.5,0.37,1.04,0.55,1.64,0.55c0.8,0,1.2-0.27,1.2-0.8c0-0.15-0.03-0.28-0.1-0.39
					c-0.07-0.11-0.16-0.2-0.28-0.28c-0.12-0.08-0.25-0.15-0.41-0.22c-0.16-0.06-0.33-0.13-0.51-0.2c-0.25-0.1-0.47-0.2-0.66-0.3
					c-0.19-0.1-0.35-0.22-0.48-0.34c-0.13-0.13-0.22-0.27-0.29-0.44c-0.06-0.16-0.1-0.35-0.1-0.57c0-0.27,0.06-0.5,0.18-0.71
					c0.12-0.21,0.29-0.38,0.49-0.52c0.2-0.14,0.44-0.24,0.7-0.31c0.26-0.07,0.53-0.11,0.81-0.11c0.49,0,0.93,0.09,1.32,0.26v0.92
					c-0.42-0.27-0.9-0.41-1.45-0.41c-0.17,0-0.32,0.02-0.46,0.06c-0.14,0.04-0.25,0.09-0.35,0.16c-0.1,0.07-0.17,0.15-0.23,0.25
					c-0.05,0.1-0.08,0.21-0.08,0.33c0,0.15,0.03,0.27,0.08,0.37c0.05,0.1,0.13,0.19,0.24,0.27c0.1,0.08,0.23,0.15,0.38,0.21
					c0.15,0.06,0.32,0.13,0.51,0.21c0.25,0.1,0.48,0.2,0.68,0.3c0.2,0.1,0.37,0.22,0.51,0.34c0.14,0.13,0.25,0.28,0.33,0.44
					c0.08,0.17,0.11,0.36,0.11,0.59c0,0.28-0.06,0.53-0.19,0.73c-0.12,0.21-0.29,0.38-0.5,0.52c-0.21,0.14-0.45,0.24-0.72,0.31
					c-0.27,0.07-0.55,0.1-0.85,0.1C223.09,67.88,222.58,67.77,222.15,67.54z"/>
				<path d="M229.53,60.61c-0.16,0-0.3-0.06-0.42-0.17c-0.11-0.11-0.17-0.25-0.17-0.42c0-0.17,0.06-0.31,0.17-0.43
					c0.11-0.11,0.25-0.17,0.42-0.17c0.17,0,0.31,0.06,0.43,0.17c0.12,0.11,0.18,0.25,0.18,0.43c0,0.16-0.06,0.3-0.18,0.42
					C229.83,60.56,229.69,60.61,229.53,60.61z M229.97,67.75h-0.91v-5.69h0.91V67.75z"/>
				<path d="M238.41,67.29c0,2.09-1,3.13-3,3.13c-0.7,0-1.32-0.13-1.85-0.4v-0.91c0.64,0.36,1.25,0.53,1.83,0.53
					c1.4,0,2.1-0.74,2.1-2.23v-0.62h-0.02c-0.43,0.73-1.09,1.09-1.96,1.09c-0.71,0-1.28-0.25-1.71-0.76
					c-0.43-0.51-0.65-1.18-0.65-2.04c0-0.97,0.23-1.74,0.7-2.31c0.46-0.57,1.1-0.86,1.91-0.86c0.77,0,1.34,0.31,1.71,0.92h0.02
					v-0.79h0.91V67.29z M237.5,65.18v-0.84c0-0.45-0.15-0.84-0.46-1.16c-0.31-0.32-0.69-0.48-1.14-0.48c-0.56,0-1,0.2-1.32,0.61
					c-0.32,0.41-0.48,0.98-0.48,1.72c0,0.63,0.15,1.14,0.46,1.52c0.31,0.38,0.71,0.57,1.21,0.57c0.51,0,0.93-0.18,1.25-0.54
					C237.34,66.21,237.5,65.74,237.5,65.18z"/>
				<path d="M246.71,67.75h-0.91V64.5c0-1.21-0.44-1.81-1.32-1.81c-0.46,0-0.83,0.17-1.13,0.51c-0.3,0.34-0.45,0.78-0.45,1.3v3.25
					h-0.91v-5.69h0.91V63h0.02c0.43-0.72,1.05-1.08,1.87-1.08c0.62,0,1.1,0.2,1.43,0.6c0.33,0.4,0.49,0.98,0.49,1.74V67.75z"/>
				<path d="M255.14,59.78l-3.82,9.29h-0.85l3.81-9.29H255.14z"/>
				<path d="M260.16,67.75h-0.93v-7.97h0.93V67.75z"/>
				<path d="M268.7,60.62h-2.3v7.13h-0.93v-7.13h-2.3v-0.84h5.53V60.62z"/>
				<path d="M277.02,67.75h-0.91v-0.89h-0.02c-0.4,0.68-0.98,1.02-1.75,1.02c-0.57,0-1.01-0.15-1.33-0.45
					c-0.32-0.3-0.48-0.7-0.48-1.19c0-1.06,0.63-1.68,1.88-1.86l1.71-0.24c0-0.97-0.39-1.45-1.17-1.45c-0.69,0-1.3,0.23-1.86,0.7
					v-0.93c0.56-0.36,1.2-0.53,1.93-0.53c1.34,0,2.01,0.71,2.01,2.12V67.75z M276.11,64.87l-1.37,0.19
					c-0.42,0.06-0.74,0.16-0.96,0.31c-0.21,0.15-0.32,0.42-0.32,0.8c0,0.28,0.1,0.5,0.3,0.68c0.2,0.18,0.46,0.26,0.79,0.26
					c0.45,0,0.83-0.16,1.12-0.48c0.29-0.32,0.44-0.72,0.44-1.2V64.87z"/>
				<path d="M284.35,67.49c-0.44,0.26-0.96,0.39-1.56,0.39c-0.81,0-1.47-0.26-1.96-0.79c-0.5-0.53-0.75-1.21-0.75-2.05
					c0-0.94,0.27-1.69,0.81-2.26c0.54-0.57,1.25-0.85,2.15-0.85c0.5,0,0.94,0.09,1.32,0.28v0.93c-0.42-0.3-0.87-0.44-1.36-0.44
					c-0.58,0-1.06,0.21-1.43,0.63c-0.37,0.42-0.56,0.96-0.56,1.64c0,0.67,0.18,1.19,0.53,1.58c0.35,0.39,0.82,0.58,1.41,0.58
					c0.5,0,0.96-0.16,1.4-0.49V67.49z"/>
				<path d="M291.54,67.75h-0.91v-0.89h-0.02c-0.4,0.68-0.98,1.02-1.75,1.02c-0.57,0-1.01-0.15-1.33-0.45
					c-0.32-0.3-0.48-0.7-0.48-1.19c0-1.06,0.63-1.68,1.88-1.86l1.71-0.24c0-0.97-0.39-1.45-1.17-1.45c-0.69,0-1.3,0.23-1.86,0.7
					v-0.93c0.56-0.36,1.2-0.53,1.93-0.53c1.34,0,2.01,0.71,2.01,2.12V67.75z M290.63,64.87l-1.37,0.19
					c-0.42,0.06-0.74,0.16-0.96,0.31c-0.21,0.15-0.32,0.42-0.32,0.8c0,0.28,0.1,0.5,0.3,0.68c0.2,0.18,0.46,0.26,0.79,0.26
					c0.45,0,0.83-0.16,1.12-0.48c0.29-0.32,0.44-0.72,0.44-1.2V64.87z"/>
				<path d="M299.85,67.75h-0.91v-0.97h-0.02c-0.42,0.73-1.07,1.1-1.96,1.1c-0.72,0-1.29-0.25-1.71-0.76s-0.64-1.2-0.64-2.08
					c0-0.94,0.24-1.7,0.71-2.26c0.47-0.57,1.11-0.85,1.9-0.85c0.78,0,1.35,0.31,1.71,0.92h0.02v-3.52h0.91V67.75z M298.94,65.18
					v-0.84c0-0.46-0.15-0.85-0.46-1.17c-0.3-0.32-0.69-0.48-1.16-0.48c-0.56,0-0.99,0.2-1.31,0.61c-0.32,0.41-0.48,0.97-0.48,1.69
					c0,0.66,0.15,1.17,0.46,1.55s0.72,0.57,1.23,0.57c0.51,0,0.92-0.18,1.24-0.55C298.78,66.2,298.94,65.74,298.94,65.18z"/>
				<path d="M308,65.13h-4.02c0.01,0.63,0.19,1.12,0.51,1.47c0.33,0.34,0.77,0.52,1.35,0.52c0.64,0,1.23-0.21,1.77-0.63v0.86
					c-0.5,0.36-1.16,0.54-1.98,0.54c-0.8,0-1.44-0.26-1.9-0.78s-0.69-1.24-0.69-2.18c0-0.89,0.25-1.61,0.75-2.16
					s1.13-0.84,1.87-0.84s1.32,0.24,1.73,0.72c0.41,0.48,0.61,1.15,0.61,2.01V65.13z M307.07,64.36c0-0.53-0.13-0.94-0.38-1.23
					c-0.25-0.29-0.6-0.44-1.04-0.44c-0.43,0-0.79,0.15-1.1,0.46c-0.3,0.31-0.49,0.71-0.56,1.21H307.07z"/>
				<path d="M319.2,67.75h-0.91v-3.27c0-0.63-0.1-1.09-0.29-1.37c-0.19-0.28-0.52-0.42-0.98-0.42c-0.39,0-0.72,0.18-0.99,0.53
					s-0.41,0.78-0.41,1.28v3.25h-0.91v-3.38c0-1.12-0.43-1.68-1.3-1.68c-0.4,0-0.73,0.17-0.99,0.5c-0.26,0.34-0.39,0.77-0.39,1.31
					v3.25h-0.91v-5.69h0.91v0.9h0.02c0.4-0.69,0.99-1.03,1.77-1.03c0.39,0,0.73,0.11,1.02,0.33c0.29,0.22,0.49,0.5,0.59,0.85
					c0.42-0.79,1.05-1.18,1.89-1.18c1.25,0,1.88,0.77,1.88,2.32V67.75z"/>
				<path d="M327.18,62.06l-2.62,6.6c-0.47,1.18-1.12,1.77-1.97,1.77c-0.24,0-0.44-0.02-0.59-0.07v-0.82c0.2,0.07,0.38,0.1,0.54,0.1
					c0.46,0,0.8-0.27,1.03-0.82l0.46-1.08l-2.22-5.68h1.01l1.54,4.38c0.02,0.06,0.06,0.2,0.12,0.43h0.03
					c0.02-0.09,0.06-0.23,0.11-0.42l1.62-4.39H327.18z"/>
			</g>
			<g>
				<path d="M86.42,35.86v17.99h-8.2V13.67h8.2v15.27h15.53V13.67h8.15v40.18h-8.15V35.86H86.42z"/>
				<path d="M234.19,53.85h-7.64V13.67h7.64V53.85z"/>
				<path d="M290.43,33.35c-0.21-1.26-0.58-2.19-1.13-2.77c-0.82-0.79-2.17-1.18-4.05-1.18c-1.88,0-3.18,0.32-3.9,0.97
					c-0.51,0.44-0.77,1.09-0.77,1.95c0,0.82,0.61,1.47,1.85,1.95c0.75,0.34,2.22,0.73,4.41,1.18c3.69,0.75,6.3,1.57,7.84,2.46
					c2.67,1.47,4,3.66,4,6.56c0,3.83-1.54,6.63-4.61,8.41c-2.22,1.3-4.9,1.95-8.05,1.95c-3.83,0-6.95-0.75-9.38-2.26
					c-2.97-1.81-4.49-4.53-4.56-8.15h7.89c0,1.4,0.44,2.46,1.33,3.18c1.02,0.85,2.68,1.28,4.97,1.28c1.71,0,3.01-0.38,3.9-1.13
					c0.68-0.58,1.02-1.25,1.02-2c0-0.92-0.65-1.66-1.95-2.2c-0.79-0.31-2.31-0.7-4.56-1.18c-3.62-0.75-6.18-1.55-7.69-2.41
					c-2.56-1.47-3.84-3.66-3.84-6.56c0-2.67,0.82-4.89,2.46-6.66c2.05-2.22,5.14-3.33,9.28-3.33c3.49,0,6.27,0.6,8.35,1.79
					c2.8,1.61,4.34,4.32,4.61,8.15H290.43z"/>
				<path d="M318.93,33.35c-0.2-1.26-0.58-2.19-1.13-2.77c-0.82-0.79-2.17-1.18-4.05-1.18c-1.88,0-3.18,0.32-3.9,0.97
					c-0.51,0.44-0.77,1.09-0.77,1.95c0,0.82,0.61,1.47,1.85,1.95c0.75,0.34,2.22,0.73,4.41,1.18c3.69,0.75,6.3,1.57,7.84,2.46
					c2.67,1.47,4,3.66,4,6.56c0,3.83-1.54,6.63-4.61,8.41c-2.22,1.3-4.9,1.95-8.05,1.95c-3.83,0-6.95-0.75-9.38-2.26
					c-2.97-1.81-4.49-4.53-4.56-8.15h7.89c0,1.4,0.44,2.46,1.33,3.18c1.02,0.85,2.68,1.28,4.97,1.28c1.71,0,3.01-0.38,3.9-1.13
					c0.68-0.58,1.02-1.25,1.02-2c0-0.92-0.65-1.66-1.95-2.2c-0.79-0.31-2.31-0.7-4.56-1.18c-3.62-0.75-6.18-1.55-7.69-2.41
					c-2.56-1.47-3.84-3.66-3.84-6.56c0-2.67,0.82-4.89,2.46-6.66c2.05-2.22,5.14-3.33,9.28-3.33c3.49,0,6.27,0.6,8.35,1.79
					c2.8,1.61,4.34,4.32,4.61,8.15H318.93z"/>
				<path d="M253.53,21.53c-9.01,0-16.31,7.3-16.31,16.31s7.3,16.31,16.31,16.31c3.3,0,6.37-0.99,8.94-2.68v2.68h7.37V37.84
					C269.84,28.83,262.53,21.53,253.53,21.53z M253.53,46.78c-4.94,0-8.94-4-8.94-8.94s4-8.94,8.94-8.94s8.94,4,8.94,8.94
					S258.46,46.78,253.53,46.78z"/>
				<path d="M215.97,44.25c-1.61,1.56-3.8,2.53-6.22,2.53c-4.94,0-8.94-4-8.94-8.94s4-8.94,8.94-8.94c2.42,0,4.61,0.97,6.22,2.53
					h7.45c-1.52-6.05-6.94-9.9-13.67-9.9c-9.01,0-16.31,7.3-16.31,16.31s7.3,16.31,16.31,16.31c6.73,0,12.15-4.1,13.67-9.9H215.97z"
					/>
				<path d="M144.12,17.34c-9.01,0-16.31,7.3-16.31,16.31c0,3.26,0.97,6.29,2.61,8.84c1.39,2.16,3.28,3.96,5.51,5.25
					c2.41,1.4,5.2,2.22,8.19,2.22c2.99,0,5.78-0.82,8.19-2.22c0.48,1.1,0.75,2.31,0.75,3.58c0,4.94-4,8.94-8.94,8.94
					c-2.72,0-5.16-1.22-6.8-3.14v9.02c2.07,0.95,4.37,1.5,6.8,1.5c9.01,0,16.31-7.3,16.31-16.31v-1.36V35.01v-1.36
					C160.43,24.64,153.13,17.34,144.12,17.34z M152.31,37.23c-1.21,2.77-3.8,4.8-6.89,5.25c-0.42,0.06-0.85,0.1-1.29,0.1
					c-0.44,0-0.87-0.04-1.29-0.1c-3.1-0.45-5.68-2.48-6.89-5.25c-0.48-1.1-0.75-2.31-0.75-3.58c0-4.94,4-8.94,8.94-8.94
					c4.94,0,8.94,4,8.94,8.94C153.06,34.92,152.79,36.13,152.31,37.23z"/>
				<g>
					<rect x="116.24" y="24.49" width="7.64" height="29.37"/>
					<polygon class="st2" points="120.06,13.12 116.51,19.26 123.61,19.26 					"/>
				</g>
				<path d="M188.31,25.92c-1.01-0.94-2.08-1.8-3.45-2.22c-2.92-1.1-8.92-2.39-12.34,1.6V13.67h-7.59v40.18h7.59V36.89
					c0-2.15,0.58-3.86,1.74-5.13c1.13-1.16,2.56-1.74,4.31-1.74c2.15,0,3.6,0.7,4.36,2.1c0.41,0.82,0.63,2.07,0.67,3.74v17.99h7.59
					V33.4C191.18,30.19,190.22,27.7,188.31,25.92z"/>
			</g>
		</g>
		<path class="st2" d="M49.11,56.62V37.96H35.56v18.65H23.51V10.68h12.05v17.67h13.56V10.68h9.11C52.08,4.11,43.35,0,33.65,0
			C15.06,0,0,15.06,0,33.65c0,18.58,15.06,33.65,33.65,33.65c9.7,0,18.43-4.11,24.58-10.68H49.11z"/>
	</g>
</g>
<g id="레이어_1_copy">
	<path class="st3" d="M210.32,62.85h-0.02c-0.36-0.62-0.92-0.92-1.71-0.92c-0.79,0-1.42,0.28-1.9,0.85
		c-0.47,0.57-0.71,1.32-0.71,2.26c0,0.88,0.21,1.57,0.64,2.08c0.43,0.51,1,0.76,1.71,0.76c0.88,0,1.53-0.37,1.96-1.1h0.02v0.97h0.91
		v-8.43h-0.91V62.85z M210.32,65.18c0,0.56-0.16,1.02-0.48,1.39c-0.32,0.37-0.73,0.55-1.24,0.55c-0.52,0-0.93-0.19-1.23-0.57
		c-0.31-0.38-0.46-0.9-0.46-1.55c0-0.72,0.16-1.28,0.48-1.69c0.32-0.41,0.76-0.61,1.31-0.61c0.47,0,0.85,0.16,1.16,0.48
		c0.3,0.32,0.46,0.71,0.46,1.17V65.18z"/>
	<path class="st3" d="M217.04,61.93c-0.74,0-1.37,0.28-1.87,0.84c-0.5,0.56-0.75,1.28-0.75,2.16c0,0.94,0.23,1.66,0.69,2.18
		s1.09,0.78,1.9,0.78c0.82,0,1.48-0.18,1.98-0.54v-0.86c-0.54,0.42-1.13,0.63-1.77,0.63c-0.57,0-1.02-0.17-1.35-0.52
		c-0.33-0.34-0.5-0.83-0.51-1.47h4.02v-0.48c0-0.86-0.2-1.52-0.61-2.01C218.36,62.17,217.79,61.93,217.04,61.93z M215.37,64.36
		c0.07-0.5,0.26-0.9,0.56-1.21c0.3-0.31,0.67-0.46,1.1-0.46c0.44,0,0.79,0.15,1.04,0.44c0.25,0.29,0.38,0.7,0.38,1.23H215.37z"/>
	<path class="st3" d="M225.49,65.19c-0.14-0.13-0.31-0.24-0.51-0.34c-0.2-0.1-0.43-0.2-0.68-0.3c-0.19-0.07-0.36-0.14-0.51-0.21
		c-0.15-0.06-0.27-0.13-0.38-0.21c-0.1-0.08-0.18-0.17-0.24-0.27c-0.05-0.1-0.08-0.22-0.08-0.37c0-0.12,0.03-0.23,0.08-0.33
		c0.05-0.1,0.13-0.18,0.23-0.25c0.1-0.07,0.22-0.12,0.35-0.16c0.14-0.04,0.29-0.06,0.46-0.06c0.54,0,1.03,0.14,1.45,0.41v-0.92
		c-0.39-0.17-0.83-0.26-1.32-0.26c-0.28,0-0.55,0.04-0.81,0.11c-0.26,0.07-0.49,0.18-0.7,0.31c-0.2,0.14-0.37,0.31-0.49,0.52
		c-0.12,0.21-0.18,0.44-0.18,0.71c0,0.22,0.03,0.41,0.1,0.57c0.06,0.16,0.16,0.31,0.29,0.44c0.13,0.13,0.29,0.24,0.48,0.34
		c0.19,0.1,0.41,0.2,0.66,0.3c0.18,0.07,0.35,0.14,0.51,0.2c0.16,0.06,0.29,0.14,0.41,0.22c0.12,0.08,0.21,0.18,0.28,0.28
		c0.07,0.11,0.1,0.23,0.1,0.39c0,0.53-0.4,0.8-1.2,0.8c-0.6,0-1.14-0.18-1.64-0.55v0.98c0.43,0.23,0.94,0.34,1.52,0.34
		c0.3,0,0.58-0.03,0.85-0.1c0.27-0.07,0.51-0.17,0.72-0.31c0.21-0.14,0.37-0.31,0.5-0.52c0.12-0.21,0.19-0.45,0.19-0.73
		c0-0.23-0.04-0.43-0.11-0.59C225.73,65.47,225.63,65.32,225.49,65.19z"/>
	<rect x="229.06" y="62.06" class="st3" width="0.91" height="5.69"/>
	<path class="st3" d="M229.53,59.43c-0.16,0-0.3,0.06-0.42,0.17c-0.11,0.11-0.17,0.25-0.17,0.43c0,0.17,0.06,0.31,0.17,0.42
		c0.11,0.11,0.25,0.17,0.42,0.17c0.17,0,0.31-0.06,0.43-0.17c0.12-0.11,0.18-0.25,0.18-0.42c0-0.17-0.06-0.31-0.18-0.43
		C229.83,59.49,229.69,59.43,229.53,59.43z"/>
	<path class="st3" d="M237.5,62.85h-0.02c-0.37-0.62-0.94-0.92-1.71-0.92c-0.81,0-1.44,0.29-1.91,0.86c-0.46,0.57-0.7,1.34-0.7,2.31
		c0,0.85,0.22,1.53,0.65,2.04c0.43,0.51,1,0.76,1.71,0.76c0.87,0,1.52-0.36,1.96-1.09h0.02v0.62c0,1.49-0.7,2.23-2.1,2.23
		c-0.58,0-1.19-0.18-1.83-0.53v0.91c0.53,0.27,1.14,0.4,1.85,0.4c2,0,3-1.04,3-3.13v-5.24h-0.91V62.85z M237.5,65.18
		c0,0.57-0.16,1.03-0.48,1.4c-0.32,0.36-0.74,0.54-1.25,0.54c-0.5,0-0.91-0.19-1.21-0.57c-0.31-0.38-0.46-0.89-0.46-1.52
		c0-0.74,0.16-1.31,0.48-1.72c0.32-0.41,0.76-0.61,1.32-0.61c0.46,0,0.84,0.16,1.14,0.48c0.31,0.32,0.46,0.71,0.46,1.16V65.18z"/>
	<path class="st3" d="M244.79,61.93c-0.82,0-1.44,0.36-1.87,1.08h-0.02v-0.95h-0.91v5.69h0.91V64.5c0-0.52,0.15-0.96,0.45-1.3
		c0.3-0.34,0.68-0.51,1.13-0.51c0.88,0,1.32,0.6,1.32,1.81v3.25h0.91v-3.48c0-0.76-0.16-1.34-0.49-1.74
		C245.89,62.13,245.41,61.93,244.79,61.93z"/>
	<polygon class="st3" points="250.47,69.07 251.32,69.07 255.14,59.78 254.28,59.78 	"/>
	<rect x="259.22" y="59.78" class="st3" width="0.93" height="7.97"/>
	<polygon class="st3" points="263.17,60.62 265.47,60.62 265.47,67.75 266.4,67.75 266.4,60.62 268.7,60.62 268.7,59.78 
		263.17,59.78 	"/>
	<path class="st3" d="M275.01,61.93c-0.73,0-1.37,0.18-1.93,0.53v0.93c0.55-0.47,1.17-0.7,1.86-0.7c0.78,0,1.17,0.48,1.17,1.45
		l-1.71,0.24c-1.25,0.17-1.88,0.79-1.88,1.86c0,0.5,0.16,0.89,0.48,1.19c0.32,0.3,0.76,0.45,1.33,0.45c0.77,0,1.35-0.34,1.75-1.02
		h0.02v0.89h0.91v-3.7C277.02,62.63,276.35,61.93,275.01,61.93z M276.11,65.44c0,0.49-0.15,0.89-0.44,1.2
		c-0.29,0.32-0.67,0.48-1.12,0.48c-0.33,0-0.59-0.09-0.79-0.26c-0.2-0.18-0.3-0.4-0.3-0.68c0-0.38,0.11-0.65,0.32-0.8
		c0.21-0.15,0.53-0.25,0.96-0.31l1.37-0.19V65.44z"/>
	<path class="st3" d="M280.89,62.78c-0.54,0.57-0.81,1.32-0.81,2.26c0,0.84,0.25,1.53,0.75,2.05c0.5,0.53,1.15,0.79,1.96,0.79
		c0.6,0,1.12-0.13,1.56-0.39v-0.87c-0.44,0.33-0.9,0.49-1.4,0.49c-0.59,0-1.06-0.19-1.41-0.58c-0.35-0.39-0.53-0.91-0.53-1.58
		c0-0.68,0.19-1.23,0.56-1.64c0.37-0.42,0.85-0.63,1.43-0.63c0.48,0,0.93,0.15,1.36,0.44V62.2c-0.38-0.19-0.82-0.28-1.32-0.28
		C282.14,61.93,281.43,62.21,280.89,62.78z"/>
	<path class="st3" d="M289.53,61.93c-0.73,0-1.37,0.18-1.93,0.53v0.93c0.55-0.47,1.17-0.7,1.86-0.7c0.78,0,1.17,0.48,1.17,1.45
		l-1.71,0.24c-1.25,0.17-1.88,0.79-1.88,1.86c0,0.5,0.16,0.89,0.48,1.19c0.32,0.3,0.76,0.45,1.33,0.45c0.77,0,1.35-0.34,1.75-1.02
		h0.02v0.89h0.91v-3.7C291.54,62.63,290.87,61.93,289.53,61.93z M290.63,65.44c0,0.49-0.15,0.89-0.44,1.2
		c-0.29,0.32-0.67,0.48-1.12,0.48c-0.33,0-0.59-0.09-0.79-0.26c-0.2-0.18-0.3-0.4-0.3-0.68c0-0.38,0.11-0.65,0.32-0.8
		c0.21-0.15,0.53-0.25,0.96-0.31l1.37-0.19V65.44z"/>
	<path class="st3" d="M298.94,62.85h-0.02c-0.36-0.62-0.92-0.92-1.71-0.92c-0.79,0-1.42,0.28-1.9,0.85
		c-0.47,0.57-0.71,1.32-0.71,2.26c0,0.88,0.21,1.57,0.64,2.08c0.43,0.51,1,0.76,1.71,0.76c0.88,0,1.53-0.37,1.96-1.1h0.02v0.97h0.91
		v-8.43h-0.91V62.85z M298.94,65.18c0,0.56-0.16,1.02-0.48,1.39s-0.73,0.55-1.24,0.55c-0.52,0-0.93-0.19-1.23-0.57
		c-0.31-0.38-0.46-0.9-0.46-1.55c0-0.72,0.16-1.28,0.48-1.69c0.32-0.41,0.76-0.61,1.31-0.61c0.47,0,0.85,0.16,1.16,0.48
		c0.3,0.32,0.46,0.71,0.46,1.17V65.18z"/>
	<path class="st3" d="M305.66,61.93c-0.74,0-1.37,0.28-1.87,0.84c-0.5,0.56-0.75,1.28-0.75,2.16c0,0.94,0.23,1.66,0.69,2.18
		c0.46,0.52,1.09,0.78,1.9,0.78c0.82,0,1.48-0.18,1.98-0.54v-0.86c-0.54,0.42-1.13,0.63-1.77,0.63c-0.57,0-1.02-0.17-1.35-0.52
		c-0.33-0.34-0.5-0.83-0.51-1.47H308v-0.48c0-0.86-0.2-1.52-0.61-2.01C306.98,62.17,306.41,61.93,305.66,61.93z M304,64.36
		c0.07-0.5,0.26-0.9,0.56-1.21c0.3-0.31,0.67-0.46,1.09-0.46c0.44,0,0.79,0.15,1.04,0.44c0.25,0.29,0.38,0.7,0.38,1.23H304z"/>
	<path class="st3" d="M317.32,61.93c-0.84,0-1.47,0.39-1.89,1.18c-0.11-0.35-0.31-0.64-0.59-0.85c-0.29-0.22-0.63-0.33-1.02-0.33
		c-0.77,0-1.36,0.34-1.77,1.03h-0.02v-0.9h-0.91v5.69h0.91V64.5c0-0.54,0.13-0.97,0.39-1.31c0.26-0.34,0.59-0.5,0.99-0.5
		c0.86,0,1.3,0.56,1.3,1.68v3.38h0.91V64.5c0-0.5,0.14-0.92,0.41-1.28c0.27-0.36,0.6-0.53,0.99-0.53c0.46,0,0.79,0.14,0.98,0.42
		c0.19,0.28,0.29,0.74,0.29,1.37v3.27h0.91v-3.51C319.2,62.7,318.57,61.93,317.32,61.93z"/>
	<path class="st3" d="M324.62,66.45c-0.06,0.19-0.09,0.33-0.11,0.42h-0.03c-0.06-0.23-0.1-0.38-0.12-0.43l-1.54-4.38h-1.01
		l2.22,5.68l-0.46,1.08c-0.23,0.55-0.57,0.82-1.03,0.82c-0.16,0-0.34-0.03-0.54-0.1v0.82c0.16,0.05,0.36,0.07,0.59,0.07
		c0.84,0,1.5-0.59,1.97-1.77l2.62-6.6h-0.94L324.62,66.45z"/>
	<polygon class="st3" points="101.95,28.95 86.42,28.95 86.42,13.67 78.22,13.67 78.22,53.85 86.42,53.85 86.42,35.86 101.95,35.86 
		101.95,53.85 110.1,53.85 110.1,13.67 101.95,13.67 	"/>
	<rect x="226.55" y="13.67" class="st3" width="7.64" height="40.18"/>
	<path class="st3" d="M298.68,44.47c0-2.9-1.33-5.09-4-6.56c-1.54-0.89-4.15-1.71-7.84-2.46c-2.19-0.44-3.66-0.84-4.41-1.18
		c-1.23-0.48-1.85-1.13-1.85-1.95c0-0.85,0.26-1.5,0.77-1.95c0.72-0.65,2.02-0.97,3.9-0.97c1.88,0,3.23,0.39,4.05,1.18
		c0.55,0.58,0.92,1.5,1.13,2.77h7.43c-0.27-3.83-1.81-6.54-4.61-8.15c-2.08-1.2-4.87-1.79-8.35-1.79c-4.13,0-7.23,1.11-9.28,3.33
		c-1.64,1.78-2.46,4-2.46,6.66c0,2.9,1.28,5.09,3.84,6.56c1.5,0.85,4.07,1.66,7.69,2.41c2.26,0.48,3.78,0.87,4.56,1.18
		c1.3,0.55,1.95,1.28,1.95,2.2c0,0.75-0.34,1.42-1.02,2c-0.89,0.75-2.19,1.13-3.9,1.13c-2.29,0-3.95-0.43-4.97-1.28
		c-0.89-0.72-1.33-1.78-1.33-3.18h-7.89c0.07,3.62,1.59,6.34,4.56,8.15c2.43,1.5,5.55,2.25,9.38,2.25c3.14,0,5.83-0.65,8.05-1.95
		C297.15,51.1,298.68,48.3,298.68,44.47z"/>
	<path class="st3" d="M323.19,37.91c-1.54-0.89-4.15-1.71-7.84-2.46c-2.19-0.44-3.66-0.84-4.41-1.18c-1.23-0.48-1.85-1.13-1.85-1.95
		c0-0.85,0.26-1.5,0.77-1.95c0.72-0.65,2.02-0.97,3.9-0.97c1.88,0,3.23,0.39,4.05,1.18c0.55,0.58,0.92,1.5,1.13,2.77h7.43
		c-0.27-3.83-1.81-6.54-4.61-8.15c-2.08-1.2-4.87-1.79-8.35-1.79c-4.13,0-7.23,1.11-9.28,3.33c-1.64,1.78-2.46,4-2.46,6.66
		c0,2.9,1.28,5.09,3.84,6.56c1.5,0.85,4.07,1.66,7.69,2.41c2.26,0.48,3.78,0.87,4.56,1.18c1.3,0.55,1.95,1.28,1.95,2.2
		c0,0.75-0.34,1.42-1.02,2c-0.89,0.75-2.19,1.13-3.9,1.13c-2.29,0-3.95-0.43-4.97-1.28c-0.89-0.72-1.33-1.78-1.33-3.18h-7.89
		c0.07,3.62,1.59,6.34,4.56,8.15c2.43,1.5,5.55,2.25,9.38,2.25c3.14,0,5.83-0.65,8.05-1.95c3.08-1.78,4.61-4.58,4.61-8.41
		C327.18,41.57,325.85,39.38,323.19,37.91z"/>
	<path class="st3" d="M253.53,21.53c-9.01,0-16.31,7.3-16.31,16.31s7.3,16.31,16.31,16.31c3.3,0,6.37-0.99,8.94-2.68v2.68h7.37
		V37.84C269.84,28.83,262.53,21.53,253.53,21.53z M253.53,46.78c-4.94,0-8.94-4-8.94-8.94s4-8.94,8.94-8.94s8.94,4,8.94,8.94
		S258.46,46.78,253.53,46.78z"/>
	<path class="st3" d="M215.97,44.25c-1.61,1.56-3.8,2.53-6.22,2.53c-4.94,0-8.94-4-8.94-8.94s4-8.94,8.94-8.94
		c2.42,0,4.61,0.97,6.22,2.53h7.45c-1.52-6.05-6.94-9.9-13.67-9.9c-9.01,0-16.31,7.3-16.31,16.31s7.3,16.31,16.31,16.31
		c6.73,0,12.15-4.1,13.67-9.9H215.97z"/>
	<path class="st3" d="M144.12,17.34c-9.01,0-16.31,7.3-16.31,16.31c0,3.26,0.97,6.29,2.61,8.84c1.39,2.16,3.28,3.96,5.51,5.25
		c2.41,1.4,5.2,2.22,8.19,2.22c2.99,0,5.78-0.82,8.19-2.22c0.48,1.1,0.75,2.31,0.75,3.58c0,4.94-4,8.94-8.94,8.94
		c-2.72,0-5.16-1.22-6.8-3.14v9.02c2.07,0.95,4.37,1.5,6.8,1.5c9.01,0,16.31-7.3,16.31-16.31v-1.36V35.01v-1.36
		C160.43,24.64,153.13,17.34,144.12,17.34z M152.31,37.23c-1.21,2.77-3.8,4.8-6.89,5.25c-0.42,0.06-0.85,0.1-1.29,0.1
		c-0.44,0-0.87-0.04-1.29-0.1c-3.1-0.45-5.68-2.48-6.89-5.25c-0.48-1.1-0.75-2.31-0.75-3.58c0-4.94,4-8.94,8.94-8.94
		c4.94,0,8.94,4,8.94,8.94C153.06,34.92,152.79,36.13,152.31,37.23z"/>
	<rect x="116.24" y="24.49" class="st3" width="7.64" height="29.37"/>
	<polygon class="st3" points="120.06,13.12 116.51,19.26 123.61,19.26 	"/>
	<path class="st3" d="M184.86,23.71c-2.92-1.1-8.92-2.39-12.34,1.6V13.67h-7.59v40.18h7.59V36.89c0-2.15,0.58-3.86,1.74-5.13
		c1.13-1.16,2.56-1.74,4.31-1.74c2.15,0,3.6,0.7,4.36,2.1c0.41,0.82,0.63,2.07,0.67,3.74v17.99h7.59V33.4
		c0-3.21-0.96-5.71-2.87-7.48C187.3,24.98,186.23,24.12,184.86,23.71z"/>
	<path class="st3" d="M49.11,37.96H35.56v18.65H23.51V10.68h12.05v17.67h13.56V10.68h9.11C52.08,4.11,43.35,0,33.65,0
		C15.06,0,0,15.06,0,33.65c0,18.58,15.06,33.65,33.65,33.65c9.7,0,18.43-4.11,24.58-10.68h-9.11V37.96z"/>
</g>
</svg>
