<?xml version="1.0" encoding="UTF-8" standalone="no"?>
<svg
   xmlns:dc="http://purl.org/dc/elements/1.1/"
   xmlns:cc="http://creativecommons.org/ns#"
   xmlns:rdf="http://www.w3.org/1999/02/22-rdf-syntax-ns#"
   xmlns:svg="http://www.w3.org/2000/svg"
   xmlns="http://www.w3.org/2000/svg"
   viewBox="0 0 793.70135 1122.52"
   height="1122.52"
   width="793.70135"
   xml:space="preserve"
   id="svg2"
   version="1.1"><metadata
     id="metadata8"><rdf:RDF><cc:Work
         rdf:about=""><dc:format>image/svg+xml</dc:format><dc:type
           rdf:resource="http://purl.org/dc/dcmitype/StillImage" /></cc:Work></rdf:RDF></metadata><defs
     id="defs6"><clipPath
       id="clipPath18"
       clipPathUnits="userSpaceOnUse"><path
         id="path16"
         d="M 0,841.89 H 595.276 V 0 H 0 Z" /></clipPath></defs><g
     transform="matrix(1.3333333,0,0,-1.3333333,0,1122.52)"
     id="g10"><g
       id="g12"><g
         clip-path="url(#clipPath18)"
         id="g14"><g
           transform="translate(344.3619,390.9829)"
           id="g20"><path
             id="path22"
             style="fill:#332d2b;fill-opacity:1;fill-rule:nonzero;stroke:none"
             d="m 0,0 v 0.839 c 0,0.46 -0.152,0.849 -0.456,1.168 -0.304,0.318 -0.689,0.478 -1.156,0.478 -0.556,0 -0.993,-0.204 -1.312,-0.612 -0.318,-0.407 -0.478,-0.971 -0.478,-1.69 0,-0.655 0.153,-1.173 0.459,-1.553 0.306,-0.38 0.716,-0.57 1.231,-0.57 0.508,0 0.92,0.184 1.237,0.55 C -0.158,-1.023 0,-0.56 0,0 M 0.912,-2.574 H 0 v 0.968 h -0.022 c -0.423,-0.734 -1.075,-1.101 -1.957,-1.101 -0.715,0 -1.287,0.255 -1.714,0.764 -0.428,0.51 -0.642,1.204 -0.642,2.082 0,0.941 0.237,1.695 0.711,2.262 0.474,0.567 1.106,0.851 1.895,0.851 0.782,0 1.351,-0.308 1.707,-0.923 H 0 v 3.524 h 0.912 z" /></g><g
           transform="translate(352.4937,391.8)"
           id="g24"><path
             id="path26"
             style="fill:#332d2b;fill-opacity:1;fill-rule:nonzero;stroke:none"
             d="m 0,0 c -0.004,0.526 -0.131,0.936 -0.381,1.228 -0.25,0.293 -0.597,0.439 -1.042,0.439 -0.43,0 -0.795,-0.153 -1.095,-0.461 C -2.818,0.899 -3.003,0.497 -3.074,0 Z m 0.934,-0.773 h -4.019 c 0.015,-0.633 0.185,-1.122 0.512,-1.467 0.326,-0.345 0.774,-0.517 1.345,-0.517 0.641,0 1.23,0.211 1.767,0.634 v -0.856 c -0.5,-0.363 -1.162,-0.545 -1.984,-0.545 -0.804,0 -1.436,0.258 -1.896,0.775 -0.459,0.517 -0.689,1.245 -0.689,2.182 0,0.886 0.251,1.607 0.753,2.165 0.502,0.558 1.126,0.837 1.871,0.837 0.745,0 1.321,-0.241 1.728,-0.723 C 0.73,1.23 0.934,0.561 0.934,-0.295 Z" /></g><g
           transform="translate(356.1955,388.6151)"
           id="g28"><path
             id="path30"
             style="fill:#332d2b;fill-opacity:1;fill-rule:nonzero;stroke:none"
             d="m 0,0 v 0.978 c 0.497,-0.367 1.043,-0.55 1.64,-0.55 0.8,0 1.2,0.267 1.2,0.8 C 2.84,1.38 2.806,1.509 2.737,1.615 2.669,1.72 2.576,1.814 2.46,1.895 2.343,1.977 2.206,2.05 2.048,2.115 1.891,2.18 1.721,2.247 1.54,2.318 1.288,2.418 1.066,2.519 0.875,2.621 0.685,2.723 0.525,2.838 0.397,2.965 0.27,3.093 0.173,3.239 0.108,3.402 0.044,3.565 0.011,3.756 0.011,3.974 0.011,4.241 0.072,4.477 0.195,4.683 0.317,4.889 0.48,5.061 0.684,5.2 0.887,5.339 1.12,5.443 1.381,5.514 1.642,5.584 1.912,5.619 2.19,5.619 2.683,5.619 3.124,5.534 3.513,5.364 V 4.441 C 3.094,4.715 2.612,4.852 2.068,4.852 1.897,4.852 1.743,4.833 1.606,4.794 1.469,4.755 1.352,4.701 1.253,4.63 1.155,4.56 1.079,4.475 1.026,4.377 0.972,4.279 0.945,4.171 0.945,4.052 0.945,3.904 0.972,3.78 1.026,3.68 1.079,3.58 1.158,3.491 1.262,3.413 1.366,3.335 1.491,3.265 1.64,3.202 1.788,3.139 1.957,3.07 2.146,2.996 2.397,2.9 2.624,2.8 2.824,2.699 3.024,2.597 3.194,2.482 3.335,2.354 3.476,2.226 3.584,2.079 3.66,1.912 3.736,1.745 3.774,1.547 3.774,1.317 3.774,1.036 3.712,0.791 3.588,0.584 3.464,0.376 3.298,0.204 3.09,0.067 2.883,-0.07 2.644,-0.172 2.373,-0.239 2.103,-0.306 1.819,-0.339 1.523,-0.339 0.937,-0.339 0.43,-0.226 0,0" /></g><path
           id="path32"
           style="fill:#332d2b;fill-opacity:1;fill-rule:nonzero;stroke:none"
           d="m 364.016,388.409 h -0.912 v 5.692 h 0.912 z m -0.445,7.137 c -0.163,0 -0.302,0.056 -0.417,0.167 -0.114,0.111 -0.172,0.252 -0.172,0.422 0,0.171 0.058,0.313 0.172,0.426 0.115,0.113 0.254,0.169 0.417,0.169 0.167,0 0.309,-0.056 0.426,-0.169 0.116,-0.113 0.175,-0.255 0.175,-0.426 0,-0.163 -0.059,-0.302 -0.175,-0.416 -0.117,-0.115 -0.259,-0.173 -0.426,-0.173" /><g
           transform="translate(371.5419,390.9829)"
           id="g34"><path
             id="path36"
             style="fill:#332d2b;fill-opacity:1;fill-rule:nonzero;stroke:none"
             d="m 0,0 v 0.839 c 0,0.452 -0.153,0.84 -0.459,1.162 -0.305,0.322 -0.686,0.484 -1.142,0.484 -0.563,0 -1.004,-0.205 -1.323,-0.615 -0.318,-0.409 -0.478,-0.983 -0.478,-1.72 0,-0.634 0.153,-1.14 0.459,-1.52 0.306,-0.38 0.71,-0.57 1.214,-0.57 0.512,0 0.928,0.182 1.248,0.545 C -0.16,-1.032 0,-0.567 0,0 m 0.912,-2.118 c 0,-2.09 -1.001,-3.135 -3.002,-3.135 -0.704,0 -1.319,0.134 -1.845,0.401 v 0.911 c 0.641,-0.356 1.252,-0.533 1.834,-0.533 C -0.7,-4.474 0,-3.73 0,-2.24 v 0.623 h -0.022 c -0.434,-0.727 -1.086,-1.09 -1.957,-1.09 -0.708,0 -1.277,0.253 -1.709,0.759 -0.432,0.506 -0.648,1.185 -0.648,2.037 0,0.967 0.233,1.736 0.698,2.307 0.465,0.57 1.102,0.856 1.909,0.856 0.767,0 1.336,-0.308 1.707,-0.923 H 0 v 0.789 h 0.912 z" /></g><g
           transform="translate(380.7576,388.4094)"
           id="g38"><path
             id="path40"
             style="fill:#332d2b;fill-opacity:1;fill-rule:nonzero;stroke:none"
             d="m 0,0 h -0.912 v 3.246 c 0,1.208 -0.441,1.812 -1.322,1.812 -0.456,0 -0.833,-0.171 -1.132,-0.514 C -3.664,4.201 -3.813,3.769 -3.813,3.246 V 0 h -0.912 v 5.692 h 0.912 V 4.747 h 0.022 c 0.43,0.719 1.053,1.078 1.868,1.078 0.622,0 1.099,-0.201 1.428,-0.603 C -0.165,4.82 0,4.239 0,3.48 Z" /></g><g
           transform="translate(389.1895,396.3801)"
           id="g42"><path
             id="path44"
             style="fill:#332d2b;fill-opacity:1;fill-rule:nonzero;stroke:none"
             d="M 0,0 -3.824,-9.294 H -4.675 L -0.862,0 Z" /></g><path
           id="path46"
           style="fill:#332d2b;fill-opacity:1;fill-rule:nonzero;stroke:none"
           d="m 394.203,388.409 h -0.934 v 7.971 h 0.934 z" /><g
           transform="translate(402.7462,395.5352)"
           id="g48"><path
             id="path50"
             style="fill:#332d2b;fill-opacity:1;fill-rule:nonzero;stroke:none"
             d="M 0,0 H -2.301 V -7.126 H -3.235 V 0 H -5.531 V 0.845 H 0 Z" /></g><g
           transform="translate(410.1555,391.2886)"
           id="g52"><path
             id="path54"
             style="fill:#332d2b;fill-opacity:1;fill-rule:nonzero;stroke:none"
             d="m 0,0 -1.373,-0.189 c -0.422,-0.059 -0.741,-0.164 -0.956,-0.314 -0.215,-0.15 -0.322,-0.416 -0.322,-0.798 0,-0.278 0.099,-0.505 0.297,-0.681 0.198,-0.176 0.462,-0.264 0.792,-0.264 0.452,0 0.826,0.159 1.12,0.476 C -0.147,-1.453 0,-1.052 0,-0.567 Z M 0.912,-2.879 H 0 v 0.889 h -0.022 c -0.397,-0.682 -0.98,-1.023 -1.751,-1.023 -0.567,0 -1.011,0.15 -1.331,0.451 -0.321,0.3 -0.481,0.698 -0.481,1.195 0,1.063 0.626,1.682 1.879,1.856 L 0,0.728 c 0,0.967 -0.391,1.451 -1.173,1.451 -0.685,0 -1.304,-0.234 -1.856,-0.7 v 0.933 c 0.559,0.356 1.204,0.534 1.934,0.534 1.338,0 2.007,-0.708 2.007,-2.123 z" /></g><g
           transform="translate(418.3984,388.6707)"
           id="g56"><path
             id="path58"
             style="fill:#332d2b;fill-opacity:1;fill-rule:nonzero;stroke:none"
             d="m 0,0 c -0.437,-0.263 -0.956,-0.395 -1.556,-0.395 -0.812,0 -1.467,0.264 -1.965,0.792 -0.499,0.528 -0.748,1.213 -0.748,2.054 0,0.938 0.269,1.691 0.806,2.26 0.537,0.568 1.254,0.853 2.151,0.853 0.5,0 0.941,-0.093 1.323,-0.278 V 4.352 c -0.422,0.297 -0.874,0.445 -1.356,0.445 -0.582,0 -1.059,-0.209 -1.431,-0.625 -0.373,-0.417 -0.559,-0.965 -0.559,-1.643 0,-0.667 0.175,-1.193 0.525,-1.579 0.35,-0.385 0.82,-0.578 1.409,-0.578 0.497,0 0.964,0.165 1.401,0.495 z" /></g><g
           transform="translate(424.6737,391.2886)"
           id="g60"><path
             id="path62"
             style="fill:#332d2b;fill-opacity:1;fill-rule:nonzero;stroke:none"
             d="m 0,0 -1.373,-0.189 c -0.422,-0.059 -0.741,-0.164 -0.956,-0.314 -0.215,-0.15 -0.322,-0.416 -0.322,-0.798 0,-0.278 0.099,-0.505 0.297,-0.681 0.198,-0.176 0.462,-0.264 0.792,-0.264 0.452,0 0.826,0.159 1.12,0.476 C -0.147,-1.453 0,-1.052 0,-0.567 Z M 0.912,-2.879 H 0 v 0.889 h -0.022 c -0.397,-0.682 -0.98,-1.023 -1.751,-1.023 -0.567,0 -1.011,0.15 -1.331,0.451 -0.321,0.3 -0.481,0.698 -0.481,1.195 0,1.063 0.626,1.682 1.879,1.856 L 0,0.728 c 0,0.967 -0.391,1.451 -1.173,1.451 -0.685,0 -1.304,-0.234 -1.856,-0.7 v 0.933 c 0.559,0.356 1.204,0.534 1.934,0.534 1.338,0 2.007,-0.708 2.007,-2.123 z" /></g><g
           transform="translate(432.9833,390.9829)"
           id="g64"><path
             id="path66"
             style="fill:#332d2b;fill-opacity:1;fill-rule:nonzero;stroke:none"
             d="m 0,0 v 0.839 c 0,0.46 -0.152,0.849 -0.456,1.168 -0.304,0.318 -0.689,0.478 -1.156,0.478 -0.556,0 -0.993,-0.204 -1.312,-0.612 -0.318,-0.407 -0.478,-0.971 -0.478,-1.69 0,-0.655 0.153,-1.173 0.459,-1.553 0.306,-0.38 0.716,-0.57 1.231,-0.57 0.508,0 0.92,0.184 1.237,0.55 C -0.158,-1.023 0,-0.56 0,0 M 0.912,-2.574 H 0 v 0.968 h -0.022 c -0.423,-0.734 -1.075,-1.101 -1.957,-1.101 -0.715,0 -1.287,0.255 -1.714,0.764 -0.428,0.51 -0.642,1.204 -0.642,2.082 0,0.941 0.237,1.695 0.711,2.262 0.474,0.567 1.106,0.851 1.895,0.851 0.782,0 1.351,-0.308 1.707,-0.923 H 0 v 3.524 h 0.912 z" /></g><g
           transform="translate(441.1151,391.8)"
           id="g68"><path
             id="path70"
             style="fill:#332d2b;fill-opacity:1;fill-rule:nonzero;stroke:none"
             d="m 0,0 c -0.004,0.526 -0.131,0.936 -0.381,1.228 -0.25,0.293 -0.597,0.439 -1.042,0.439 -0.43,0 -0.795,-0.153 -1.095,-0.461 C -2.818,0.899 -3.003,0.497 -3.074,0 Z m 0.934,-0.773 h -4.019 c 0.015,-0.633 0.185,-1.122 0.512,-1.467 0.326,-0.345 0.774,-0.517 1.345,-0.517 0.641,0 1.23,0.211 1.767,0.634 v -0.856 c -0.5,-0.363 -1.162,-0.545 -1.984,-0.545 -0.804,0 -1.436,0.258 -1.896,0.775 -0.459,0.517 -0.689,1.245 -0.689,2.182 0,0.886 0.251,1.607 0.753,2.165 0.502,0.558 1.126,0.837 1.871,0.837 0.745,0 1.321,-0.241 1.728,-0.723 C 0.73,1.23 0.934,0.561 0.934,-0.295 Z" /></g><g
           transform="translate(453.2433,388.4094)"
           id="g72"><path
             id="path74"
             style="fill:#332d2b;fill-opacity:1;fill-rule:nonzero;stroke:none"
             d="m 0,0 h -0.912 v 3.268 c 0,0.63 -0.097,1.086 -0.291,1.368 -0.195,0.281 -0.522,0.422 -0.981,0.422 -0.39,0 -0.72,-0.178 -0.993,-0.534 C -3.449,4.169 -3.585,3.743 -3.585,3.246 V 0 h -0.912 v 3.379 c 0,1.12 -0.431,1.679 -1.295,1.679 -0.4,0 -0.73,-0.168 -0.989,-0.503 C -7.041,4.22 -7.17,3.783 -7.17,3.246 V 0 H -8.082 V 5.692 H -7.17 V 4.791 h 0.022 c 0.404,0.69 0.993,1.034 1.768,1.034 0.389,0 0.728,-0.108 1.017,-0.325 0.289,-0.217 0.487,-0.501 0.594,-0.853 0.423,0.785 1.053,1.178 1.89,1.178 C -0.626,5.825 0,5.053 0,3.507 Z" /></g><g
           transform="translate(461.2305,394.1012)"
           id="g76"><path
             id="path78"
             style="fill:#332d2b;fill-opacity:1;fill-rule:nonzero;stroke:none"
             d="m 0,0 -2.618,-6.603 c -0.467,-1.179 -1.123,-1.768 -1.968,-1.768 -0.237,0 -0.435,0.024 -0.594,0.072 v 0.817 c 0.196,-0.066 0.376,-0.1 0.539,-0.1 0.459,0 0.804,0.275 1.034,0.823 L -3.152,-5.681 -5.375,0 h 1.012 l 1.539,-4.38 c 0.019,-0.056 0.058,-0.2 0.117,-0.434 h 0.033 c 0.019,0.089 0.056,0.23 0.112,0.423 L -0.945,0 Z" /></g><g
           transform="translate(220.4651,420.2951)"
           id="g80"><path
             id="path82"
             style="fill:#332d2b;fill-opacity:1;fill-rule:nonzero;stroke:none"
             d="M 0,0 V -17.989 H -8.2 V 22.192 H 0 V 6.919 h 15.529 v 15.273 h 8.149 v -40.181 h -8.149 l 0,17.989 z" /></g><path
           id="path84"
           style="fill:#332d2b;fill-opacity:1;fill-rule:nonzero;stroke:none"
           d="M 368.236,402.306 H 360.6 v 40.181 h 7.636 z" /><g
           transform="translate(424.4776,422.8064)"
           id="g86"><path
             id="path88"
             style="fill:#332d2b;fill-opacity:1;fill-rule:nonzero;stroke:none"
             d="m 0,0 c -0.205,1.264 -0.581,2.187 -1.128,2.768 -0.82,0.785 -2.169,1.178 -4.048,1.178 -1.88,0 -3.178,-0.324 -3.896,-0.973 C -9.584,2.528 -9.84,1.879 -9.84,1.025 c 0,-0.82 0.615,-1.469 1.845,-1.948 0.751,-0.341 2.221,-0.734 4.407,-1.178 3.691,-0.752 6.304,-1.572 7.842,-2.46 2.665,-1.47 3.997,-3.656 3.997,-6.561 0,-3.826 -1.537,-6.628 -4.612,-8.405 -2.221,-1.298 -4.903,-1.947 -8.047,-1.947 -3.826,0 -6.953,0.751 -9.379,2.255 -2.972,1.811 -4.493,4.527 -4.561,8.149 h 7.893 c 0,-1.401 0.444,-2.46 1.332,-3.178 1.025,-0.854 2.682,-1.281 4.972,-1.281 1.708,0 3.006,0.376 3.895,1.127 0.683,0.581 1.025,1.247 1.025,1.999 0,0.923 -0.649,1.657 -1.948,2.204 -0.786,0.307 -2.306,0.7 -4.561,1.179 -3.622,0.751 -6.184,1.554 -7.688,2.409 -2.562,1.469 -3.844,3.655 -3.844,6.56 0,2.665 0.82,4.886 2.46,6.662 2.05,2.221 5.143,3.332 9.277,3.332 3.485,0 6.27,-0.598 8.354,-1.794 C 5.621,6.543 7.158,3.827 7.431,0 Z" /></g><g
           transform="translate(452.9791,422.8064)"
           id="g90"><path
             id="path92"
             style="fill:#332d2b;fill-opacity:1;fill-rule:nonzero;stroke:none"
             d="m 0,0 c -0.205,1.264 -0.581,2.187 -1.128,2.768 -0.82,0.785 -2.169,1.178 -4.048,1.178 -1.88,0 -3.178,-0.324 -3.896,-0.973 C -9.584,2.528 -9.84,1.879 -9.84,1.025 c 0,-0.82 0.615,-1.469 1.845,-1.948 0.751,-0.341 2.221,-0.734 4.407,-1.178 3.691,-0.752 6.304,-1.572 7.842,-2.46 2.665,-1.47 3.997,-3.656 3.997,-6.561 0,-3.826 -1.537,-6.628 -4.612,-8.405 -2.221,-1.298 -4.903,-1.947 -8.047,-1.947 -3.826,0 -6.953,0.751 -9.379,2.255 -2.972,1.811 -4.493,4.527 -4.561,8.149 h 7.893 c 0,-1.401 0.444,-2.46 1.332,-3.178 1.025,-0.854 2.682,-1.281 4.972,-1.281 1.708,0 3.006,0.376 3.895,1.127 0.683,0.581 1.025,1.247 1.025,1.999 0,0.923 -0.649,1.657 -1.948,2.204 -0.786,0.307 -2.306,0.7 -4.561,1.179 -3.622,0.751 -6.184,1.554 -7.688,2.409 -2.562,1.469 -3.844,3.655 -3.844,6.56 0,2.665 0.82,4.886 2.46,6.662 2.05,2.221 5.143,3.332 9.277,3.332 3.485,0 6.27,-0.598 8.354,-1.794 C 5.621,6.543 7.158,3.827 7.431,0 Z" /></g><g
           transform="translate(387.5716,409.3816)"
           id="g94"><path
             id="path96"
             style="fill:#332d2b;fill-opacity:1;fill-rule:nonzero;stroke:none"
             d="m 0,0 c -4.938,0 -8.94,4.003 -8.94,8.94 0,4.938 4.002,8.941 8.94,8.941 4.938,0 8.94,-4.003 8.94,-8.941 C 8.94,4.003 4.938,0 0,0 m 0,25.25 c -9.008,0 -16.31,-7.302 -16.31,-16.31 0,-9.008 7.302,-16.31 16.31,-16.31 3.303,0 6.372,0.989 8.94,2.677 V -7.37 h 7.37 V 8.94 C 16.31,17.948 9.008,25.25 0,25.25" /></g><g
           transform="translate(350.0187,411.909)"
           id="g98"><path
             id="path100"
             style="fill:#332d2b;fill-opacity:1;fill-rule:nonzero;stroke:none"
             d="m 0,0 c -1.61,-1.562 -3.801,-2.527 -6.222,-2.527 -4.937,0 -8.94,4.002 -8.94,8.94 0,4.937 4.003,8.94 8.94,8.94 2.421,0 4.612,-0.965 6.222,-2.527 h 7.45 c -1.52,6.049 -6.941,9.897 -13.672,9.897 -9.007,0 -16.309,-7.302 -16.309,-16.31 0,-9.008 7.302,-16.31 16.309,-16.31 C 0.509,-9.897 5.93,-5.8 7.45,0 Z" /></g><g
           transform="translate(286.3573,418.9307)"
           id="g102"><path
             id="path104"
             style="fill:#332d2b;fill-opacity:1;fill-rule:nonzero;stroke:none"
             d="m 0,0 c -1.215,-2.774 -3.797,-4.803 -6.894,-5.254 -0.424,-0.062 -0.854,-0.104 -1.295,-0.104 -0.441,0 -0.871,0.042 -1.295,0.104 -3.097,0.45 -5.678,2.48 -6.893,5.254 -0.481,1.097 -0.752,2.307 -0.752,3.582 0,4.937 4.003,8.94 8.94,8.94 4.938,0 8.941,-4.003 8.941,-8.94 C 0.752,2.307 0.481,1.097 0,0 m -8.189,19.892 c -9.007,0 -16.31,-7.302 -16.31,-16.31 0,-3.26 0.967,-6.288 2.614,-8.836 1.394,-2.157 3.283,-3.958 5.508,-5.254 2.408,-1.403 5.2,-2.22 8.188,-2.22 2.989,0 5.781,0.816 8.189,2.22 0.481,-1.098 0.752,-2.307 0.752,-3.582 0,-4.938 -4.003,-8.94 -8.941,-8.94 -2.724,0 -5.16,1.222 -6.799,3.144 v -9.015 c 2.072,-0.953 4.369,-1.499 6.799,-1.499 9.008,0 16.31,7.302 16.31,16.31 v 1.362 14.948 1.362 c 0,9.008 -7.302,16.31 -16.31,16.31" /></g><path
           id="path106"
           style="fill:#332d2b;fill-opacity:1;fill-rule:nonzero;stroke:none"
           d="m 250.288,402.306 h 7.636 v 29.367 h -7.636 z" /><g
           transform="translate(254.1066,443.0414)"
           id="g108"><path
             id="path110"
             style="fill:#3577bc;fill-opacity:1;fill-rule:nonzero;stroke:none"
             d="M 0,0 -3.548,-6.145 H 3.548 Z" /></g><g
           transform="translate(322.3545,430.2379)"
           id="g112"><path
             id="path114"
             style="fill:#332d2b;fill-opacity:1;fill-rule:nonzero;stroke:none"
             d="m 0,0 c -1.014,0.937 -2.081,1.803 -3.448,2.215 -2.917,1.099 -8.923,2.393 -12.337,-1.601 v 11.635 h -7.586 v -40.181 h 7.586 v 16.964 c 0,2.153 0.58,3.861 1.742,5.125 1.128,1.162 2.563,1.743 4.305,1.743 2.153,0 3.605,-0.701 4.357,-2.101 0.41,-0.82 0.632,-2.068 0.666,-3.742 V -27.932 H 2.87 V -7.483 C 2.87,-4.271 1.913,-1.777 0,0" /></g><g
           transform="translate(183.1599,399.5418)"
           id="g116"><path
             id="path118"
             style="fill:#3577bc;fill-opacity:1;fill-rule:nonzero;stroke:none"
             d="M 0,0 V 18.654 H -13.557 V 0 h -12.052 v 45.941 h 12.052 V 28.269 H 0 v 17.672 h 9.108 c -6.14,6.567 -14.876,10.677 -24.575,10.677 -18.583,0 -33.647,-15.064 -33.647,-33.647 0,-18.583 15.064,-33.647 33.647,-33.647 9.699,0 18.435,4.109 24.575,10.676 z" /></g></g></g></g></svg>