<svg id="레이어_1" data-name="레이어 1" xmlns="http://www.w3.org/2000/svg" viewBox="0 0 361.93 67.29"><defs><style>.cls-1{fill:#fff;}</style></defs><path class="cls-1" d="M49.11,56.62V38H35.56V56.62h-12V10.68H35.56V28.35H49.11V10.68h9.11a33.64,33.64,0,1,0,0,45.94Z" transform="translate(0 0)"/><path class="cls-1" d="M72,54.49V47.75A71.86,71.86,0,0,1,73.52,32,39.53,39.53,0,0,1,77.7,20.71a20.59,20.59,0,0,1,6.16-6.87,13.19,13.19,0,0,1,7.46-2.33,12.35,12.35,0,0,1,7.1,2.33,19.9,19.9,0,0,1,5.93,6.87A41.12,41.12,0,0,1,108.47,32,72.48,72.48,0,0,1,110,47.75v2.4a6.31,6.31,0,0,1-.91,3.76,3.09,3.09,0,0,1-2.66,1.23h-2.53a1.88,1.88,0,0,1-1.45-.52A2.26,2.26,0,0,1,102,53V48.85c0-1.64,0-3.21-.1-4.7s-.16-2.95-.29-4.38H80.42c-.13,1.43-.22,2.89-.29,4.38s-.09,3-.09,4.64v5.7ZM91.32,17.34c-2,0-4,1.42-6,4.25S81.92,28.9,81,35h20q-1.37-9.21-4.15-13.45T91.32,17.34Z" transform="translate(0 0)"/><path class="cls-1" d="M137.54,18a17,17,0,0,0-6.19,1.1,14.17,14.17,0,0,0-4.89,3.18,13.91,13.91,0,0,0-3.21,5.09,19.42,19.42,0,0,0-1.14,6.9,17.1,17.1,0,0,0,1.14,6.45,13,13,0,0,0,3.21,4.77,13.43,13.43,0,0,0,4.89,2.92,18.86,18.86,0,0,0,6.19,1,19.63,19.63,0,0,0,6.91-1.07,20.78,20.78,0,0,0,5.22-2.88,2.85,2.85,0,0,0,.26-.17.53.53,0,0,1,.32-.09.55.55,0,0,1,.46.29,1.26,1.26,0,0,1,.19.68v1.42a8.19,8.19,0,0,1-.55,3.57,3.92,3.92,0,0,1-1.14,1.43A16.47,16.47,0,0,1,143.35,55a29.48,29.48,0,0,1-6.46.75,27.43,27.43,0,0,1-9.36-1.53,20.67,20.67,0,0,1-7.3-4.37,18.82,18.82,0,0,1-4.7-6.78,23,23,0,0,1-1.65-8.85,25.39,25.39,0,0,1,1.65-9.33,20.31,20.31,0,0,1,4.7-7.2,20.87,20.87,0,0,1,7.3-4.6,26.05,26.05,0,0,1,9.36-1.62,29.85,29.85,0,0,1,6.49.74,15.25,15.25,0,0,1,5.83,2.56,5.84,5.84,0,0,1,1.14,1.53,7.53,7.53,0,0,1,.55,3.4V21.1a1.4,1.4,0,0,1-.23.91.62.62,0,0,1-.42.26.8.8,0,0,1-.23,0,.33.33,0,0,1-.16-.17A19.43,19.43,0,0,0,144.38,19,20.65,20.65,0,0,0,137.54,18Z" transform="translate(0 0)"/><path class="cls-1" d="M156.09,54.49V47.75A71.86,71.86,0,0,1,157.61,32a39.53,39.53,0,0,1,4.18-11.32A20.59,20.59,0,0,1,168,13.84a13.19,13.19,0,0,1,7.46-2.33,12.35,12.35,0,0,1,7.1,2.33,19.9,19.9,0,0,1,5.93,6.87A41.12,41.12,0,0,1,192.56,32a72.48,72.48,0,0,1,1.52,15.72v2.4a6.31,6.31,0,0,1-.91,3.76,3.09,3.09,0,0,1-2.66,1.23H188a1.88,1.88,0,0,1-1.45-.52A2.26,2.26,0,0,1,186,53V48.85c0-1.64,0-3.21-.1-4.7s-.16-2.95-.29-4.38H164.51c-.13,1.43-.22,2.89-.29,4.38s-.09,3-.09,4.64v5.7Zm19.32-37.15c-2,0-4,1.42-6,4.25S166,28.9,165.1,35h20q-1.37-9.21-4.15-13.45T175.41,17.34Z" transform="translate(0 0)"/><path class="cls-1" d="M199.26,16.69a6.29,6.29,0,0,1,1-3.85,3.52,3.52,0,0,1,3-1.33h10.64a26.32,26.32,0,0,1,9.3,1.58,21,21,0,0,1,7.29,4.51,20.05,20.05,0,0,1,4.74,7.07,24.45,24.45,0,0,1,1.68,9.27,22.06,22.06,0,0,1-1.68,8.78,19.17,19.17,0,0,1-4.74,6.71,21.33,21.33,0,0,1-7.29,4.22,28,28,0,0,1-9.3,1.49H203.28a3.55,3.55,0,0,1-3-1.3,6.28,6.28,0,0,1-1-3.89Zm8,32.68h6a17.69,17.69,0,0,0,6.13-1,13.69,13.69,0,0,0,4.89-3,13.47,13.47,0,0,0,3.24-4.84,17.17,17.17,0,0,0,1.17-6.51,19.52,19.52,0,0,0-1.17-7,15.18,15.18,0,0,0-3.24-5.22,13.84,13.84,0,0,0-4.89-3.27,16.23,16.23,0,0,0-6.13-1.14h-6Z" transform="translate(0 0)"/><path class="cls-1" d="M270.71,12.15a1,1,0,0,1,1,1v2.52a1.59,1.59,0,0,1-.75,1.56,3.4,3.4,0,0,1-1.59.39H249.84V30.24h18.28a.94.94,0,0,1,.68.29,1,1,0,0,1,.29.69v2.52a1.6,1.6,0,0,1-.74,1.56,3.4,3.4,0,0,1-1.59.39H249.84V49.05h20.87a.9.9,0,0,1,.68.29.91.91,0,0,1,.3.68v2.53a1.58,1.58,0,0,1-.75,1.55,3.4,3.4,0,0,1-1.59.39H243.68a2.23,2.23,0,0,1-1.69-.55,2.47,2.47,0,0,1-.52-1.72V12.15Z" transform="translate(0 0)"/><path class="cls-1" d="M311.82,24.93l-9.34,13.16a9.71,9.71,0,0,1-2,2.2,3.06,3.06,0,0,1-2,.59,3.68,3.68,0,0,1-2.33-.75A9.42,9.42,0,0,1,294.18,38L285,25v29.5h-8.17V16.69a4.37,4.37,0,0,1,1.27-3.34,4.21,4.21,0,0,1,3-1.2,5.06,5.06,0,0,1,2.82.78,11.68,11.68,0,0,1,2.76,3l11.15,16c.21.35.4.52.55.52s.36-.17.61-.52l11.22-16.08a11.31,11.31,0,0,1,2.46-2.72,4.85,4.85,0,0,1,2.92-.91,4.31,4.31,0,0,1,3.11,1.11,4.51,4.51,0,0,1,1.17,3.43V50a6.14,6.14,0,0,1-1,3.89,3.57,3.57,0,0,1-3,1.3H314a2.23,2.23,0,0,1-1.69-.55,2.47,2.47,0,0,1-.51-1.72Z" transform="translate(0 0)"/><path class="cls-1" d="M353.89,18.18V14.29a2.32,2.32,0,0,1,.49-1.58,1.85,1.85,0,0,1,1.46-.56h2.53A3,3,0,0,1,361,13.39a6.06,6.06,0,0,1,.88,3.56h.06v2.27a18.48,18.48,0,0,1-1.13,6.71,16.42,16.42,0,0,1-3.14,5.16,16.05,16.05,0,0,1-4.61,3.59,19.2,19.2,0,0,1-5.64,1.92V50a6.14,6.14,0,0,1-1,3.89,3.57,3.57,0,0,1-3,1.3h-2.14a2.19,2.19,0,0,1-1.68-.55,2.42,2.42,0,0,1-.52-1.72V36.66a18.85,18.85,0,0,1-5.77-1.91,16.77,16.77,0,0,1-4.67-3.6A15.56,15.56,0,0,1,325.56,26a19.69,19.69,0,0,1-1.1-6.81V12.15h8.17v6q0,6.81,2.92,9.6a11.76,11.76,0,0,0,15.33-.1Q353.9,24.8,353.89,18.18Z" transform="translate(0 0)"/></svg>