<?xml version="1.0" encoding="utf-8"?>
<!-- Generator: Adobe Illustrator 25.2.1, SVG Export Plug-In . SVG Version: 6.00 Build 0)  -->
<svg version="1.1" id="레이어_1" xmlns="http://www.w3.org/2000/svg" xmlns:xlink="http://www.w3.org/1999/xlink" x="0px"
	 y="0px" viewBox="0 0 248.97 54.51" style="enable-background:new 0 0 248.97 54.51;" xml:space="preserve">
<style type="text/css">
	.st0{fill:#007de9;}
</style>
<g>
	<path d="M8.2,22.75v17.99H0V0.55h8.2v15.27h15.53V0.55h8.15v40.18h-8.15V22.75H8.2z"/>
	<path d="M155.97,40.74h-7.64V0.55h7.64V40.74z"/>
	<path d="M212.21,20.24c-0.21-1.26-0.58-2.19-1.13-2.77c-0.82-0.79-2.17-1.18-4.05-1.18c-1.88,0-3.18,0.32-3.9,0.97
		c-0.51,0.44-0.77,1.09-0.77,1.95c0,0.82,0.61,1.47,1.85,1.95c0.75,0.34,2.22,0.73,4.41,1.18c3.69,0.75,6.3,1.57,7.84,2.46
		c2.67,1.47,4,3.66,4,6.56c0,3.83-1.54,6.63-4.61,8.41c-2.22,1.3-4.9,1.95-8.05,1.95c-3.83,0-6.95-0.75-9.38-2.26
		c-2.97-1.81-4.49-4.53-4.56-8.15h7.89c0,1.4,0.44,2.46,1.33,3.18c1.02,0.85,2.68,1.28,4.97,1.28c1.71,0,3.01-0.38,3.9-1.13
		c0.68-0.58,1.02-1.25,1.02-2c0-0.92-0.65-1.66-1.95-2.2c-0.79-0.31-2.31-0.7-4.56-1.18c-3.62-0.75-6.18-1.55-7.69-2.41
		c-2.56-1.47-3.84-3.66-3.84-6.56c0-2.67,0.82-4.89,2.46-6.66c2.05-2.22,5.14-3.33,9.28-3.33c3.49,0,6.27,0.6,8.35,1.79
		c2.8,1.61,4.34,4.32,4.61,8.15H212.21z"/>
	<path d="M240.71,20.24c-0.2-1.26-0.58-2.19-1.13-2.77c-0.82-0.79-2.17-1.18-4.05-1.18c-1.88,0-3.18,0.32-3.9,0.97
		c-0.51,0.44-0.77,1.09-0.77,1.95c0,0.82,0.61,1.47,1.84,1.95c0.75,0.34,2.22,0.73,4.41,1.18c3.69,0.75,6.3,1.57,7.84,2.46
		c2.67,1.47,4,3.66,4,6.56c0,3.83-1.54,6.63-4.61,8.41c-2.22,1.3-4.9,1.95-8.05,1.95c-3.83,0-6.95-0.75-9.38-2.26
		c-2.97-1.81-4.49-4.53-4.56-8.15h7.89c0,1.4,0.44,2.46,1.33,3.18c1.02,0.85,2.68,1.28,4.97,1.28c1.71,0,3.01-0.38,3.9-1.13
		c0.68-0.58,1.02-1.25,1.02-2c0-0.92-0.65-1.66-1.95-2.2c-0.79-0.31-2.31-0.7-4.56-1.18c-3.62-0.75-6.18-1.55-7.69-2.41
		c-2.56-1.47-3.84-3.66-3.84-6.56c0-2.67,0.82-4.89,2.46-6.66c2.05-2.22,5.14-3.33,9.28-3.33c3.49,0,6.27,0.6,8.35,1.79
		c2.8,1.61,4.34,4.32,4.61,8.15H240.71z"/>
	<path d="M175.31,8.41c-9.01,0-16.31,7.3-16.31,16.31s7.3,16.31,16.31,16.31c3.3,0,6.37-0.99,8.94-2.68v2.68h7.37V24.72
		C191.62,15.71,184.31,8.41,175.31,8.41z M175.31,33.66c-4.94,0-8.94-4-8.94-8.94s4-8.94,8.94-8.94s8.94,4,8.94,8.94
		S180.24,33.66,175.31,33.66z"/>
	<path d="M137.75,31.13c-1.61,1.56-3.8,2.53-6.22,2.53c-4.94,0-8.94-4-8.94-8.94s4-8.94,8.94-8.94c2.42,0,4.61,0.97,6.22,2.53h7.45
		c-1.52-6.05-6.94-9.9-13.67-9.9c-9.01,0-16.31,7.3-16.31,16.31s7.3,16.31,16.31,16.31c6.73,0,12.15-4.1,13.67-9.9H137.75z"/>
	<path d="M65.9,4.22c-9.01,0-16.31,7.3-16.31,16.31c0,3.26,0.97,6.29,2.61,8.84c1.39,2.16,3.28,3.96,5.51,5.25
		c2.41,1.4,5.2,2.22,8.19,2.22c2.99,0,5.78-0.82,8.19-2.22c0.48,1.1,0.75,2.31,0.75,3.58c0,4.94-4,8.94-8.94,8.94
		c-2.72,0-5.16-1.22-6.8-3.14v9.02c2.07,0.95,4.37,1.5,6.8,1.5c9.01,0,16.31-7.3,16.31-16.31v-1.36V21.89v-1.36
		C82.21,11.52,74.91,4.22,65.9,4.22z M74.09,24.11c-1.22,2.77-3.8,4.8-6.89,5.25c-0.42,0.06-0.85,0.1-1.29,0.1
		c-0.44,0-0.87-0.04-1.29-0.1c-3.1-0.45-5.68-2.48-6.89-5.25c-0.48-1.1-0.75-2.31-0.75-3.58c0-4.94,4-8.94,8.94-8.94
		s8.94,4,8.94,8.94C74.84,21.8,74.57,23.01,74.09,24.11z"/>
	<g>
		<rect x="38.02" y="11.37" width="7.64" height="29.37"/>
		<polygon class="st0" points="41.84,0 38.29,6.14 45.39,6.14 		"/>
	</g>
	<path d="M110.09,12.8c-1.01-0.94-2.08-1.8-3.45-2.22c-2.92-1.1-8.92-2.39-12.34,1.6V0.55h-7.59v40.18h7.59V23.77
		c0-2.15,0.58-3.86,1.74-5.13c1.13-1.16,2.56-1.74,4.31-1.74c2.15,0,3.6,0.7,4.36,2.1c0.41,0.82,0.63,2.07,0.67,3.74v17.99h7.59
		V20.29C112.96,17.07,112,14.58,110.09,12.8z"/>
</g>
</svg>
