<?xml version="1.0" encoding="utf-8"?>
<!-- Generator: Adobe Illustrator 25.2.1, SVG Export Plug-In . SVG Version: 6.00 Build 0)  -->
<svg version="1.1" xmlns="http://www.w3.org/2000/svg" xmlns:xlink="http://www.w3.org/1999/xlink" x="0px" y="0px"
	 viewBox="0 0 327.18 67.63" style="enable-background:new 0 0 327.18 67.63;" xml:space="preserve">
<style type="text/css">
	.st0{display:none;}
	.st1{display:inline;}
	.st2{fill:#007de9;}
	.st3{display:inline;fill:#007de9;}
	.st4{fill:#FFFFFF;}
</style>
<g id="레이어_1" class="st0">
	<g class="st1">
		<path d="M86.42,35.86v17.99h-8.2V13.67h8.2v15.27h15.53V13.67h8.15v40.18h-8.15V35.86H86.42z"/>
		<path d="M234.19,53.85h-7.64V13.67h7.64V53.85z"/>
		<path d="M290.43,33.35c-0.21-1.26-0.58-2.19-1.13-2.77c-0.82-0.79-2.17-1.18-4.05-1.18c-1.88,0-3.18,0.32-3.9,0.97
			c-0.51,0.44-0.77,1.09-0.77,1.95c0,0.82,0.61,1.47,1.85,1.95c0.75,0.34,2.22,0.73,4.41,1.18c3.69,0.75,6.3,1.57,7.84,2.46
			c2.67,1.47,4,3.66,4,6.56c0,3.83-1.54,6.63-4.61,8.41c-2.22,1.3-4.9,1.95-8.05,1.95c-3.83,0-6.95-0.75-9.38-2.26
			c-2.97-1.81-4.49-4.53-4.56-8.15h7.89c0,1.4,0.44,2.46,1.33,3.18c1.02,0.85,2.68,1.28,4.97,1.28c1.71,0,3.01-0.38,3.9-1.13
			c0.68-0.58,1.02-1.25,1.02-2c0-0.92-0.65-1.66-1.95-2.2c-0.79-0.31-2.31-0.7-4.56-1.18c-3.62-0.75-6.18-1.55-7.69-2.41
			c-2.56-1.47-3.84-3.66-3.84-6.56c0-2.67,0.82-4.89,2.46-6.66c2.05-2.22,5.14-3.33,9.28-3.33c3.49,0,6.27,0.6,8.35,1.79
			c2.8,1.61,4.34,4.32,4.61,8.15H290.43z"/>
		<path d="M318.93,33.35c-0.2-1.26-0.58-2.19-1.13-2.77c-0.82-0.79-2.17-1.18-4.05-1.18c-1.88,0-3.18,0.32-3.9,0.97
			c-0.51,0.44-0.77,1.09-0.77,1.95c0,0.82,0.61,1.47,1.85,1.95c0.75,0.34,2.22,0.73,4.41,1.18c3.69,0.75,6.3,1.57,7.84,2.46
			c2.67,1.47,4,3.66,4,6.56c0,3.83-1.54,6.63-4.61,8.41c-2.22,1.3-4.9,1.95-8.05,1.95c-3.83,0-6.95-0.75-9.38-2.26
			c-2.97-1.81-4.49-4.53-4.56-8.15h7.89c0,1.4,0.44,2.46,1.33,3.18c1.02,0.85,2.68,1.28,4.97,1.28c1.71,0,3.01-0.38,3.9-1.13
			c0.68-0.58,1.02-1.25,1.02-2c0-0.92-0.65-1.66-1.95-2.2c-0.79-0.31-2.31-0.7-4.56-1.18c-3.62-0.75-6.18-1.55-7.69-2.41
			c-2.56-1.47-3.84-3.66-3.84-6.56c0-2.67,0.82-4.89,2.46-6.66c2.05-2.22,5.14-3.33,9.28-3.33c3.49,0,6.27,0.6,8.35,1.79
			c2.8,1.61,4.34,4.32,4.61,8.15H318.93z"/>
		<path d="M253.53,21.53c-9.01,0-16.31,7.3-16.31,16.31s7.3,16.31,16.31,16.31c3.3,0,6.37-0.99,8.94-2.68v2.68h7.37V37.84
			C269.84,28.83,262.53,21.53,253.53,21.53z M253.53,46.78c-4.94,0-8.94-4-8.94-8.94s4-8.94,8.94-8.94s8.94,4,8.94,8.94
			S258.46,46.78,253.53,46.78z"/>
		<path d="M215.97,44.25c-1.61,1.56-3.8,2.53-6.22,2.53c-4.94,0-8.94-4-8.94-8.94s4-8.94,8.94-8.94c2.42,0,4.61,0.97,6.22,2.53h7.45
			c-1.52-6.05-6.94-9.9-13.67-9.9c-9.01,0-16.31,7.3-16.31,16.31s7.3,16.31,16.31,16.31c6.73,0,12.15-4.1,13.67-9.9H215.97z"/>
		<path d="M144.12,17.34c-9.01,0-16.31,7.3-16.31,16.31c0,3.26,0.97,6.29,2.61,8.84c1.39,2.16,3.28,3.96,5.51,5.25
			c2.41,1.4,5.2,2.22,8.19,2.22c2.99,0,5.78-0.82,8.19-2.22c0.48,1.1,0.75,2.31,0.75,3.58c0,4.94-4,8.94-8.94,8.94
			c-2.72,0-5.16-1.22-6.8-3.14v9.02c2.07,0.95,4.37,1.5,6.8,1.5c9.01,0,16.31-7.3,16.31-16.31v-1.36V35.01v-1.36
			C160.43,24.64,153.13,17.34,144.12,17.34z M152.31,37.23c-1.21,2.77-3.8,4.8-6.89,5.25c-0.42,0.06-0.85,0.1-1.29,0.1
			c-0.44,0-0.87-0.04-1.29-0.1c-3.1-0.45-5.68-2.48-6.89-5.25c-0.48-1.1-0.75-2.31-0.75-3.58c0-4.94,4-8.94,8.94-8.94
			c4.94,0,8.94,4,8.94,8.94C153.06,34.92,152.79,36.13,152.31,37.23z"/>
		<g>
			<rect x="116.24" y="24.49" width="7.64" height="29.37"/>
			<polygon class="st2" points="120.06,13.12 116.51,19.26 123.61,19.26 			"/>
		</g>
		<path d="M188.31,25.92c-1.01-0.94-2.08-1.8-3.45-2.22c-2.92-1.1-8.92-2.39-12.34,1.6V13.67h-7.59v40.18h7.59V36.89
			c0-2.15,0.58-3.86,1.74-5.13c1.13-1.16,2.56-1.74,4.31-1.74c2.15,0,3.6,0.7,4.36,2.1c0.41,0.82,0.63,2.07,0.67,3.74v17.99h7.59
			V33.4C191.18,30.19,190.22,27.7,188.31,25.92z"/>
	</g>
	<path class="st3" d="M49.11,56.62V37.96H35.56v18.65H23.51V10.68h12.05v17.67h13.56V10.68h9.11C52.08,4.11,43.35,0,33.65,0
		C15.06,0,0,15.06,0,33.65c0,18.58,15.06,33.65,33.65,33.65c9.7,0,18.43-4.11,24.58-10.68H49.11z"/>
</g>
<g id="레이어_1_copy">
	<polygon class="st4" points="101.95,28.95 86.42,28.95 86.42,13.67 78.22,13.67 78.22,53.85 86.42,53.85 86.42,35.86 101.95,35.86 
		101.95,53.85 110.1,53.85 110.1,13.67 101.95,13.67 	"/>
	<rect x="226.55" y="13.67" class="st4" width="7.64" height="40.18"/>
	<path class="st4" d="M298.68,44.47c0-2.9-1.33-5.09-4-6.56c-1.54-0.89-4.15-1.71-7.84-2.46c-2.19-0.44-3.66-0.84-4.41-1.18
		c-1.23-0.48-1.85-1.13-1.85-1.95c0-0.85,0.26-1.5,0.77-1.95c0.72-0.65,2.02-0.97,3.9-0.97c1.88,0,3.23,0.39,4.05,1.18
		c0.55,0.58,0.92,1.5,1.13,2.77h7.43c-0.27-3.83-1.81-6.54-4.61-8.15c-2.08-1.2-4.87-1.79-8.35-1.79c-4.13,0-7.23,1.11-9.28,3.33
		c-1.64,1.78-2.46,4-2.46,6.66c0,2.9,1.28,5.09,3.84,6.56c1.5,0.85,4.07,1.66,7.69,2.41c2.26,0.48,3.78,0.87,4.56,1.18
		c1.3,0.55,1.95,1.28,1.95,2.2c0,0.75-0.34,1.42-1.02,2c-0.89,0.75-2.19,1.13-3.9,1.13c-2.29,0-3.95-0.43-4.97-1.28
		c-0.89-0.72-1.33-1.78-1.33-3.18h-7.89c0.07,3.62,1.59,6.34,4.56,8.15c2.43,1.5,5.55,2.25,9.38,2.25c3.14,0,5.83-0.65,8.05-1.95
		C297.15,51.1,298.68,48.3,298.68,44.47z"/>
	<path class="st4" d="M323.19,37.91c-1.54-0.89-4.15-1.71-7.84-2.46c-2.19-0.44-3.66-0.84-4.41-1.18c-1.23-0.48-1.85-1.13-1.85-1.95
		c0-0.85,0.26-1.5,0.77-1.95c0.72-0.65,2.02-0.97,3.9-0.97c1.88,0,3.23,0.39,4.05,1.18c0.55,0.58,0.92,1.5,1.13,2.77h7.43
		c-0.27-3.83-1.81-6.54-4.61-8.15c-2.08-1.2-4.87-1.79-8.35-1.79c-4.13,0-7.23,1.11-9.28,3.33c-1.64,1.78-2.46,4-2.46,6.66
		c0,2.9,1.28,5.09,3.84,6.56c1.5,0.85,4.07,1.66,7.69,2.41c2.26,0.48,3.78,0.87,4.56,1.18c1.3,0.55,1.95,1.28,1.95,2.2
		c0,0.75-0.34,1.42-1.02,2c-0.89,0.75-2.19,1.13-3.9,1.13c-2.29,0-3.95-0.43-4.97-1.28c-0.89-0.72-1.33-1.78-1.33-3.18h-7.89
		c0.07,3.62,1.59,6.34,4.56,8.15c2.43,1.5,5.55,2.25,9.38,2.25c3.14,0,5.83-0.65,8.05-1.95c3.08-1.78,4.61-4.58,4.61-8.41
		C327.18,41.57,325.85,39.38,323.19,37.91z"/>
	<path class="st4" d="M253.53,21.53c-9.01,0-16.31,7.3-16.31,16.31s7.3,16.31,16.31,16.31c3.3,0,6.37-0.99,8.94-2.68v2.68h7.37
		V37.84C269.84,28.83,262.53,21.53,253.53,21.53z M253.53,46.78c-4.94,0-8.94-4-8.94-8.94s4-8.94,8.94-8.94s8.94,4,8.94,8.94
		S258.46,46.78,253.53,46.78z"/>
	<path class="st4" d="M215.97,44.25c-1.61,1.56-3.8,2.53-6.22,2.53c-4.94,0-8.94-4-8.94-8.94s4-8.94,8.94-8.94
		c2.42,0,4.61,0.97,6.22,2.53h7.45c-1.52-6.05-6.94-9.9-13.67-9.9c-9.01,0-16.31,7.3-16.31,16.31s7.3,16.31,16.31,16.31
		c6.73,0,12.15-4.1,13.67-9.9H215.97z"/>
	<path class="st4" d="M144.12,17.34c-9.01,0-16.31,7.3-16.31,16.31c0,3.26,0.97,6.29,2.61,8.84c1.39,2.16,3.28,3.96,5.51,5.25
		c2.41,1.4,5.2,2.22,8.19,2.22c2.99,0,5.78-0.82,8.19-2.22c0.48,1.1,0.75,2.31,0.75,3.58c0,4.94-4,8.94-8.94,8.94
		c-2.72,0-5.16-1.22-6.8-3.14v9.02c2.07,0.95,4.37,1.5,6.8,1.5c9.01,0,16.31-7.3,16.31-16.31v-1.36V35.01v-1.36
		C160.43,24.64,153.13,17.34,144.12,17.34z M152.31,37.23c-1.21,2.77-3.8,4.8-6.89,5.25c-0.42,0.06-0.85,0.1-1.29,0.1
		c-0.44,0-0.87-0.04-1.29-0.1c-3.1-0.45-5.68-2.48-6.89-5.25c-0.48-1.1-0.75-2.31-0.75-3.58c0-4.94,4-8.94,8.94-8.94
		c4.94,0,8.94,4,8.94,8.94C153.06,34.92,152.79,36.13,152.31,37.23z"/>
	<rect x="116.24" y="24.49" class="st4" width="7.64" height="29.37"/>
	<polygon class="st4" points="120.06,13.12 116.51,19.26 123.61,19.26 	"/>
	<path class="st4" d="M184.86,23.71c-2.92-1.1-8.92-2.39-12.34,1.6V13.67h-7.59v40.18h7.59V36.89c0-2.15,0.58-3.86,1.74-5.13
		c1.13-1.16,2.56-1.74,4.31-1.74c2.15,0,3.6,0.7,4.36,2.1c0.41,0.82,0.63,2.07,0.67,3.74v17.99h7.59V33.4
		c0-3.21-0.96-5.71-2.87-7.48C187.3,24.98,186.23,24.12,184.86,23.71z"/>
	<path class="st4" d="M49.11,37.96H35.56v18.65H23.51V10.68h12.05v17.67h13.56V10.68h9.11C52.08,4.11,43.35,0,33.65,0
		C15.06,0,0,15.06,0,33.65c0,18.58,15.06,33.65,33.65,33.65c9.7,0,18.43-4.11,24.58-10.68h-9.11V37.96z"/>
</g>
</svg>
