<?xml version="1.0" encoding="utf-8"?>
<!-- Generator: Adobe Illustrator 25.2.1, SVG Export Plug-In . SVG Version: 6.00 Build 0)  -->
<svg version="1.1" id="Layer_1" xmlns="http://www.w3.org/2000/svg" xmlns:xlink="http://www.w3.org/1999/xlink" x="0px" y="0px"
	 viewBox="0 0 96.19 16" style="enable-background:new 0 0 96.19 16;" xml:space="preserve">
<style type="text/css">
	.st0{fill:#007DE9;}
</style>
<g>
	<polygon class="st0" points="8,12.71 3.33,15.15 4.22,9.98 0.44,6.31 5.67,5.56 8,0.85 10.33,5.56 15.56,6.31 11.78,9.98 
		12.67,15.15 	"/>
	<path class="st0" d="M8,0.41c0.17,0,0.32,0.1,0.4,0.25l2.23,4.5l4.99,0.72c0.17,0.02,0.31,0.14,0.36,0.3
		c0.05,0.16,0.01,0.34-0.11,0.45l-3.61,3.5l0.85,4.95c0.03,0.17-0.04,0.33-0.18,0.43c-0.14,0.1-0.32,0.11-0.47,0.03L8,13.21
		l-4.46,2.33c-0.15,0.08-0.33,0.07-0.47-0.03c-0.14-0.1-0.21-0.27-0.18-0.43l0.85-4.95l-3.61-3.5C0.01,6.51-0.03,6.34,0.02,6.18
		c0.05-0.16,0.19-0.28,0.36-0.3l4.99-0.72l2.23-4.5C7.68,0.5,7.83,0.41,8,0.41z M14.6,6.62l-4.33-0.63C10.13,5.97,10,5.88,9.94,5.75
		L8,1.85L6.06,5.75C6,5.88,5.87,5.97,5.73,5.99L1.4,6.62l3.13,3.04c0.1,0.1,0.15,0.25,0.13,0.39l-0.74,4.29l3.87-2.03
		c0.13-0.07,0.28-0.07,0.41,0l3.87,2.03l-0.74-4.29c-0.02-0.14,0.02-0.29,0.13-0.39L14.6,6.62z"/>
</g>
<g>
	<polygon class="st0" points="28.05,12.71 23.38,15.15 24.27,9.98 20.49,6.31 25.71,5.56 28.05,0.85 30.38,5.56 35.6,6.31 
		31.82,9.98 32.72,15.15 	"/>
	<path class="st0" d="M28.05,0.41c0.17,0,0.32,0.1,0.4,0.25l2.23,4.5l4.99,0.72c0.17,0.02,0.31,0.14,0.36,0.3
		c0.05,0.16,0.01,0.34-0.11,0.45l-3.61,3.5l0.85,4.95c0.03,0.17-0.04,0.33-0.18,0.43c-0.14,0.1-0.32,0.11-0.47,0.03l-4.46-2.33
		l-4.46,2.33c-0.15,0.08-0.33,0.07-0.47-0.03c-0.14-0.1-0.21-0.27-0.18-0.43l0.85-4.95l-3.61-3.5c-0.12-0.12-0.16-0.29-0.11-0.45
		c0.05-0.16,0.19-0.28,0.36-0.3l4.99-0.72l2.23-4.5C27.72,0.5,27.88,0.41,28.05,0.41z M34.65,6.62l-4.33-0.63
		c-0.14-0.02-0.27-0.11-0.33-0.24l-1.94-3.91l-1.94,3.91c-0.06,0.13-0.19,0.22-0.33,0.24l-4.33,0.63l3.13,3.04
		c0.1,0.1,0.15,0.25,0.13,0.39l-0.74,4.29l3.87-2.03c0.13-0.07,0.28-0.07,0.41,0l3.87,2.03l-0.74-4.29
		c-0.02-0.14,0.02-0.29,0.13-0.39L34.65,6.62z"/>
</g>
<g>
	<polygon class="st0" points="48.09,12.71 43.42,15.15 44.32,9.98 40.54,6.31 45.76,5.56 48.09,0.85 50.43,5.56 55.65,6.31 
		51.87,9.98 52.76,15.15 	"/>
	<path class="st0" d="M48.09,0.41c0.17,0,0.32,0.1,0.4,0.25l2.23,4.5l4.99,0.72c0.17,0.02,0.31,0.14,0.36,0.3
		c0.05,0.16,0.01,0.34-0.11,0.45l-3.61,3.5l0.85,4.95c0.03,0.17-0.04,0.33-0.18,0.43c-0.14,0.1-0.32,0.11-0.47,0.03l-4.46-2.33
		l-4.46,2.33c-0.15,0.08-0.33,0.07-0.47-0.03c-0.14-0.1-0.21-0.27-0.18-0.43l0.85-4.95l-3.61-3.5c-0.12-0.12-0.16-0.29-0.11-0.45
		c0.05-0.16,0.19-0.28,0.36-0.3l4.99-0.72l2.23-4.5C47.77,0.5,47.92,0.41,48.09,0.41z M54.69,6.62l-4.33-0.63
		c-0.14-0.02-0.27-0.11-0.33-0.24l-1.94-3.91l-1.94,3.91c-0.06,0.13-0.19,0.22-0.33,0.24l-4.33,0.63l3.13,3.04
		c0.1,0.1,0.15,0.25,0.13,0.39l-0.74,4.29l3.87-2.03c0.13-0.07,0.28-0.07,0.41,0l3.87,2.03l-0.74-4.29
		c-0.02-0.14,0.02-0.29,0.13-0.39L54.69,6.62z"/>
</g>
<g>
	<polygon class="st0" points="68.14,12.71 63.47,15.15 64.36,9.98 60.58,6.31 65.81,5.56 68.14,0.85 70.48,5.56 75.7,6.31 
		71.92,9.98 72.81,15.15 	"/>
	<path class="st0" d="M68.14,0.41c0.17,0,0.32,0.1,0.4,0.25l2.23,4.5l4.99,0.72c0.17,0.02,0.31,0.14,0.36,0.3
		c0.05,0.16,0.01,0.34-0.11,0.45l-3.61,3.5l0.85,4.95c0.03,0.17-0.04,0.33-0.18,0.43c-0.14,0.1-0.32,0.11-0.47,0.03l-4.46-2.33
		l-4.46,2.33c-0.15,0.08-0.33,0.07-0.47-0.03c-0.14-0.1-0.21-0.27-0.18-0.43l0.85-4.95l-3.61-3.5c-0.12-0.12-0.16-0.29-0.11-0.45
		c0.05-0.16,0.19-0.28,0.36-0.3l4.99-0.72l2.23-4.5C67.82,0.5,67.97,0.41,68.14,0.41z M74.74,6.62l-4.33-0.63
		c-0.14-0.02-0.27-0.11-0.33-0.24l-1.94-3.91L66.2,5.75c-0.06,0.13-0.19,0.22-0.33,0.24l-4.33,0.63l3.13,3.04
		c0.1,0.1,0.15,0.25,0.13,0.39l-0.74,4.29l3.87-2.03c0.13-0.07,0.28-0.07,0.41,0l3.87,2.03l-0.74-4.29
		c-0.02-0.14,0.02-0.29,0.13-0.39L74.74,6.62z"/>
</g>
<g>
	<polygon class="st0" points="88.19,12.71 83.52,15.15 84.41,9.98 80.63,6.31 85.85,5.56 88.19,0.85 90.52,5.56 95.74,6.31 
		91.96,9.98 92.86,15.15 	"/>
	<path class="st0" d="M88.19,0.41c0.17,0,0.32,0.1,0.4,0.25l2.23,4.5l4.99,0.72c0.17,0.02,0.31,0.14,0.36,0.3
		c0.05,0.16,0.01,0.34-0.11,0.45l-3.61,3.5l0.85,4.95c0.03,0.17-0.04,0.33-0.18,0.43c-0.14,0.1-0.32,0.11-0.47,0.03l-4.46-2.33
		l-4.46,2.33c-0.15,0.08-0.33,0.07-0.47-0.03c-0.14-0.1-0.21-0.27-0.18-0.43l0.85-4.95l-3.61-3.5c-0.12-0.12-0.16-0.29-0.11-0.45
		c0.05-0.16,0.19-0.28,0.36-0.3l4.99-0.72l2.23-4.5C87.86,0.5,88.02,0.41,88.19,0.41z M94.79,6.62l-4.33-0.63
		c-0.14-0.02-0.27-0.11-0.33-0.24l-1.94-3.91l-1.94,3.91c-0.06,0.13-0.19,0.22-0.33,0.24l-4.33,0.63l3.13,3.04
		c0.1,0.1,0.15,0.25,0.13,0.39l-0.74,4.29l3.87-2.03c0.13-0.07,0.28-0.07,0.41,0l3.87,2.03l-0.74-4.29
		c-0.02-0.14,0.02-0.29,0.13-0.39L94.79,6.62z"/>
</g>
</svg>
