<?xml version="1.0" encoding="utf-8"?>
<!-- Generator: Adobe Illustrator 25.2.1, SVG Export Plug-In . SVG Version: 6.00 Build 0)  -->
<svg version="1.1" id="Layer_1" xmlns="http://www.w3.org/2000/svg" xmlns:xlink="http://www.w3.org/1999/xlink" x="0px" y="0px"
	 viewBox="0 0 18.27 15.19" style="enable-background:new 0 0 18.27 15.19;" xml:space="preserve">
<style type="text/css">
	.st0{fill:#FFFFFF;}
	.st1{fill:#007DE9;}
</style>
<g>
	<polygon class="st0" points="9.14,12.3 4.47,14.75 5.36,9.57 1.58,5.91 6.8,5.15 9.14,0.44 11.47,5.15 16.69,5.91 12.91,9.57 
		13.81,14.75 	"/>
	<path class="st0" d="M9.14,0c0.17,0,0.32,0.1,0.4,0.25l2.23,4.5l4.99,0.72c0.17,0.02,0.31,0.14,0.36,0.3
		c0.05,0.16,0.01,0.34-0.11,0.45l-3.61,3.5l0.85,4.95c0.03,0.17-0.04,0.33-0.18,0.43c-0.14,0.1-0.32,0.11-0.47,0.03L9.14,12.8
		l-4.46,2.33C4.52,15.22,4.34,15.2,4.2,15.1C4.07,15,4,14.84,4.03,14.67l0.85-4.95l-3.61-3.5C1.15,6.11,1.11,5.93,1.16,5.77
		c0.05-0.16,0.19-0.28,0.36-0.3l4.99-0.72l2.23-4.5C8.81,0.1,8.97,0,9.14,0z M15.74,6.21l-4.33-0.63c-0.14-0.02-0.27-0.11-0.33-0.24
		L9.14,1.44L7.2,5.35C7.13,5.48,7.01,5.57,6.86,5.59L2.53,6.21l3.13,3.04c0.1,0.1,0.15,0.25,0.13,0.39l-0.74,4.29l3.87-2.03
		c0.13-0.07,0.28-0.07,0.41,0l3.87,2.03l-0.74-4.29C12.45,9.5,12.5,9.36,12.6,9.25L15.74,6.21z"/>
</g>
<g>
	<polygon class="st1" points="29.28,12.3 24.61,14.75 25.5,9.57 21.72,5.91 26.95,5.15 29.28,0.44 31.62,5.15 36.84,5.91 
		33.06,9.57 33.95,14.75 	"/>
	<path class="st1" d="M29.28,0c0.17,0,0.32,0.1,0.4,0.25l2.23,4.5l4.99,0.72c0.17,0.02,0.31,0.14,0.36,0.3
		c0.05,0.16,0.01,0.34-0.11,0.45l-3.61,3.5l0.85,4.95c0.03,0.17-0.04,0.33-0.18,0.43c-0.14,0.1-0.32,0.11-0.47,0.03l-4.46-2.33
		l-4.46,2.33c-0.15,0.08-0.33,0.07-0.47-0.03c-0.14-0.1-0.21-0.27-0.18-0.43l0.85-4.95l-3.61-3.5c-0.12-0.12-0.16-0.29-0.11-0.45
		c0.05-0.16,0.19-0.28,0.36-0.3l4.99-0.72l2.23-4.5C28.96,0.1,29.11,0,29.28,0z M35.88,6.21l-4.33-0.63
		c-0.14-0.02-0.27-0.11-0.33-0.24l-1.94-3.91l-1.94,3.91c-0.06,0.13-0.19,0.22-0.33,0.24l-4.33,0.63l3.13,3.04
		c0.1,0.1,0.15,0.25,0.13,0.39l-0.74,4.29l3.87-2.03c0.13-0.07,0.28-0.07,0.41,0l3.87,2.03l-0.74-4.29
		c-0.02-0.14,0.02-0.29,0.13-0.39L35.88,6.21z"/>
</g>
<g>
	<polygon class="st1" points="49.33,12.3 44.66,14.75 45.55,9.57 41.77,5.91 46.99,5.15 49.33,0.44 51.66,5.15 56.88,5.91 
		53.11,9.57 54,14.75 	"/>
	<path class="st1" d="M49.33,0c0.17,0,0.32,0.1,0.4,0.25l2.23,4.5l4.99,0.72c0.17,0.02,0.31,0.14,0.36,0.3
		c0.05,0.16,0.01,0.34-0.11,0.45l-3.61,3.5l0.85,4.95c0.03,0.17-0.04,0.33-0.18,0.43c-0.14,0.1-0.32,0.11-0.47,0.03l-4.46-2.33
		l-4.46,2.33c-0.15,0.08-0.33,0.07-0.47-0.03c-0.14-0.1-0.21-0.27-0.18-0.43l0.85-4.95l-3.61-3.5c-0.12-0.12-0.16-0.29-0.11-0.45
		c0.05-0.16,0.19-0.28,0.36-0.3l4.99-0.72l2.23-4.5C49,0.1,49.16,0,49.33,0z M55.93,6.21L51.6,5.59c-0.14-0.02-0.27-0.11-0.33-0.24
		l-1.94-3.91l-1.94,3.91c-0.06,0.13-0.19,0.22-0.33,0.24l-4.33,0.63l3.13,3.04c0.1,0.1,0.15,0.25,0.13,0.39l-0.74,4.29l3.87-2.03
		c0.13-0.07,0.28-0.07,0.41,0l3.87,2.03l-0.74-4.29c-0.02-0.14,0.02-0.29,0.13-0.39L55.93,6.21z"/>
</g>
<g>
	<polygon class="st1" points="69.37,12.3 64.7,14.75 65.6,9.57 61.82,5.91 67.04,5.15 69.37,0.44 71.71,5.15 76.93,5.91 73.15,9.57 
		74.04,14.75 	"/>
	<path class="st1" d="M69.37,0c0.17,0,0.32,0.1,0.4,0.25L72,4.75l4.99,0.72c0.17,0.02,0.31,0.14,0.36,0.3
		c0.05,0.16,0.01,0.34-0.11,0.45l-3.61,3.5l0.85,4.95c0.03,0.17-0.04,0.33-0.18,0.43c-0.14,0.1-0.32,0.11-0.47,0.03l-4.46-2.33
		l-4.46,2.33c-0.15,0.08-0.33,0.07-0.47-0.03c-0.14-0.1-0.21-0.27-0.18-0.43l0.85-4.95l-3.61-3.5c-0.12-0.12-0.16-0.29-0.11-0.45
		c0.05-0.16,0.19-0.28,0.36-0.3l4.99-0.72l2.23-4.5C69.05,0.1,69.2,0,69.37,0z M75.98,6.21l-4.33-0.63
		c-0.14-0.02-0.27-0.11-0.33-0.24l-1.94-3.91l-1.94,3.91c-0.06,0.13-0.19,0.22-0.33,0.24l-4.33,0.63l3.13,3.04
		c0.1,0.1,0.15,0.25,0.13,0.39l-0.74,4.29l3.87-2.03c0.13-0.07,0.28-0.07,0.41,0l3.87,2.03l-0.74-4.29
		c-0.02-0.14,0.02-0.29,0.13-0.39L75.98,6.21z"/>
</g>
<g>
	<polygon class="st1" points="89.42,12.3 84.75,14.75 85.64,9.57 81.86,5.91 87.09,5.15 89.42,0.44 91.76,5.15 96.98,5.91 
		93.2,9.57 94.09,14.75 	"/>
	<path class="st1" d="M89.42,0c0.17,0,0.32,0.1,0.4,0.25l2.23,4.5l4.99,0.72c0.17,0.02,0.31,0.14,0.36,0.3
		c0.05,0.16,0.01,0.34-0.11,0.45l-3.61,3.5l0.85,4.95c0.03,0.17-0.04,0.33-0.18,0.43c-0.14,0.1-0.32,0.11-0.47,0.03l-4.46-2.33
		l-4.46,2.33c-0.15,0.08-0.33,0.07-0.47-0.03c-0.14-0.1-0.21-0.27-0.18-0.43l0.85-4.95l-3.61-3.5c-0.12-0.12-0.16-0.29-0.11-0.45
		c0.05-0.16,0.19-0.28,0.36-0.3l4.99-0.72l2.23-4.5C89.1,0.1,89.25,0,89.42,0z M96.02,6.21l-4.33-0.63
		c-0.14-0.02-0.27-0.11-0.33-0.24l-1.94-3.91l-1.94,3.91c-0.06,0.13-0.19,0.22-0.33,0.24l-4.33,0.63l3.13,3.04
		c0.1,0.1,0.15,0.25,0.13,0.39l-0.74,4.29l3.87-2.03c0.13-0.07,0.28-0.07,0.41,0l3.87,2.03l-0.74-4.29
		c-0.02-0.14,0.02-0.29,0.13-0.39L96.02,6.21z"/>
</g>
</svg>
